<?xml version="1.0" encoding="UTF-8"?>
<!-- Generator: Adobe Illustrator 19.2.0, SVG Export Plug-In . SVG Version: 6.00 Build 0)  -->
<svg version="1.1" id="Layer_1" xmlns="http://www.w3.org/2000/svg" xmlns:xlink="http://www.w3.org/1999/xlink" x="0px" y="0px" viewBox="0 0 100 100" style="enable-background:new 0 0 100 100;" xml:space="preserve">
<style type="text/css">
	.st0{fill:#FFFFFF;}
	.st1{fill:url(#SVGID_1_);}
	.st2{fill:url(#SVGID_2_);}
	.st3{fill:url(#SVGID_3_);}
	.st4{fill:none;stroke:url(#SVGID_4_);stroke-width:2;stroke-miterlimit:10;}
	.st5{fill:none;stroke:url(#SVGID_5_);stroke-width:2;stroke-miterlimit:10;}
	.st6{fill:#FFFFFF;stroke:url(#SVGID_6_);stroke-width:2;stroke-linecap:round;stroke-miterlimit:10;}
	.st7{fill:url(#SVGID_7_);}
	.st8{fill:none;stroke:url(#SVGID_8_);stroke-width:2;stroke-miterlimit:10;}
	.st9{fill:none;stroke:url(#SVGID_9_);stroke-width:2;stroke-miterlimit:10;}
	.st10{fill:url(#SVGID_10_);}
	.st11{fill:url(#SVGID_11_);}
	.st12{fill:url(#SVGID_12_);}
</style>
<rect class="st0" width="100" height="100"/>
<g>
	<g>
		<g>
			<linearGradient id="SVGID_1_" gradientUnits="userSpaceOnUse" x1="21.2929" y1="13.5994" x2="94.3626" y2="70.2089">
				<stop offset="0" style="stop-color:#0069FF"/>
				<stop offset="1" style="stop-color:#0069FF"/>
			</linearGradient>
			<path class="st1" d="M93.6,70.6c-0.3,0-0.5-0.1-0.7-0.3c-0.2-0.2-0.3-0.5-0.3-0.7c0-0.3,0.1-0.5,0.3-0.7c0.4-0.4,1-0.4,1.4,0     c0.2,0.2,0.3,0.4,0.3,0.7c0,0.3-0.1,0.5-0.3,0.7C94.1,70.5,93.8,70.6,93.6,70.6z"/>
		</g>
		<g>
			<linearGradient id="SVGID_2_" gradientUnits="userSpaceOnUse" x1="16.1555" y1="21.8427" x2="88.416" y2="77.8254">
				<stop offset="0" style="stop-color:#0069FF"/>
				<stop offset="1" style="stop-color:#0069FF"/>
			</linearGradient>
			<path class="st2" d="M91.5,66.6c-0.3-0.5-0.2-1.1,0.2-1.4l0,0c0.4-0.3,1.1-0.2,1.4,0.2l0,0c0.3,0.4,0.2,1.1-0.2,1.4l0,0     c-0.2,0.1-0.4,0.2-0.6,0.2l0,0C92,67,91.7,66.8,91.5,66.6z M88.9,63.9C88.9,63.9,88.9,63.9,88.9,63.9L88.9,63.9     c-0.4-0.4-0.4-1-0.1-1.4l0,0c0.4-0.4,1-0.4,1.4-0.1l0,0c0.4,0.4,0.4,1,0.1,1.4l0,0c-0.2,0.2-0.5,0.3-0.8,0.3l0,0     C89.3,64.1,89.1,64,88.9,63.9z M85.9,61.4L85.9,61.4L85.9,61.4c-0.4-0.3-0.5-1-0.2-1.4l0,0c0.3-0.4,1-0.5,1.4-0.2l0,0     c0.4,0.3,0.5,1,0.2,1.4l0,0c-0.2,0.3-0.5,0.4-0.8,0.4l0,0C86.3,61.6,86.1,61.5,85.9,61.4z M82.7,59.2c-0.5-0.3-0.6-0.9-0.3-1.4     l0,0c0.3-0.5,0.9-0.6,1.4-0.3l0,0c0.5,0.3,0.6,0.9,0.3,1.4l0,0c-0.2,0.3-0.5,0.4-0.8,0.4l0,0C83.1,59.3,82.9,59.3,82.7,59.2z      M79.4,57c-0.5-0.3-0.6-0.9-0.3-1.4l0,0c0.3-0.5,0.9-0.6,1.4-0.3l0,0c0.5,0.3,0.6,0.9,0.3,1.4l0,0c-0.2,0.3-0.5,0.5-0.8,0.5l0,0     C79.8,57.2,79.6,57.1,79.4,57z M76,55c-0.5-0.3-0.6-0.9-0.4-1.4l0,0c0.3-0.5,0.9-0.6,1.4-0.4l0,0c0.5,0.3,0.6,0.9,0.4,1.4l0,0     c-0.2,0.3-0.5,0.5-0.9,0.5l0,0C76.4,55.2,76.2,55.1,76,55z M72.6,53.1c-0.5-0.3-0.7-0.9-0.4-1.3l0,0c0.3-0.5,0.9-0.7,1.3-0.4l0,0     c0.5,0.3,0.7,0.9,0.4,1.4l0,0c-0.2,0.3-0.5,0.5-0.9,0.5l0,0C72.9,53.3,72.8,53.2,72.6,53.1z M69.1,51.3c-0.5-0.2-0.7-0.9-0.4-1.3     l0,0c0.2-0.5,0.9-0.7,1.3-0.4l0,0c0.5,0.2,0.7,0.8,0.4,1.3l0,0c-0.2,0.4-0.5,0.5-0.9,0.5l0,0C69.4,51.4,69.3,51.4,69.1,51.3z      M65.6,49.6L65.6,49.6L65.6,49.6c-0.5-0.2-0.7-0.8-0.5-1.3l0,0c0.2-0.5,0.8-0.7,1.3-0.5l0,0c0.5,0.2,0.7,0.8,0.5,1.3l0,0     c-0.2,0.4-0.5,0.6-0.9,0.6l0,0C65.9,49.7,65.7,49.6,65.6,49.6z M62,47.9c-0.5-0.2-0.7-0.8-0.5-1.3l0,0c0.2-0.5,0.8-0.7,1.3-0.5     l0,0c0.5,0.2,0.7,0.8,0.5,1.3l0,0c-0.2,0.4-0.5,0.6-0.9,0.6l0,0C62.3,48,62.2,48,62,47.9z M58.4,46.3c-0.5-0.2-0.7-0.8-0.5-1.3     l0,0c0.2-0.5,0.8-0.7,1.3-0.5l0,0c0.5,0.2,0.7,0.8,0.5,1.3l0,0c-0.2,0.4-0.5,0.6-0.9,0.6l0,0C58.7,46.4,58.6,46.3,58.4,46.3z      M54.8,44.7c-0.5-0.2-0.8-0.8-0.5-1.3l0,0c0.2-0.5,0.8-0.8,1.3-0.5l0,0c0.5,0.2,0.8,0.8,0.5,1.3l0,0c-0.2,0.4-0.5,0.6-0.9,0.6     l0,0C55.1,44.8,54.9,44.8,54.8,44.7z M51.2,43.2c-0.5-0.2-0.8-0.8-0.6-1.3l0,0c0.2-0.5,0.8-0.8,1.3-0.6l0,0     c0.5,0.2,0.8,0.8,0.6,1.3l0,0c-0.2,0.4-0.5,0.6-0.9,0.6l0,0C51.4,43.3,51.3,43.3,51.2,43.2z M47.5,41.8c-0.5-0.2-0.8-0.8-0.6-1.3     l0,0c0.2-0.5,0.8-0.8,1.3-0.6l0,0c0.5,0.2,0.8,0.8,0.6,1.3l0,0c-0.1,0.4-0.5,0.6-0.9,0.6l0,0C47.7,41.9,47.6,41.9,47.5,41.8z      M43.8,40.5c-0.5-0.2-0.8-0.8-0.6-1.3l0,0c0.2-0.5,0.8-0.8,1.3-0.6l0,0c0.5,0.2,0.8,0.8,0.6,1.3l0,0c-0.1,0.4-0.5,0.7-0.9,0.7     l0,0C44,40.5,43.9,40.5,43.8,40.5z M40.1,39.2c-0.5-0.2-0.8-0.8-0.6-1.3l0,0c0.2-0.5,0.7-0.8,1.3-0.6l0,0     c0.5,0.2,0.8,0.7,0.6,1.3l0,0c-0.1,0.4-0.5,0.7-1,0.7l0,0C40.3,39.2,40.2,39.2,40.1,39.2z M36.3,38c-0.5-0.2-0.8-0.7-0.7-1.2l0,0     c0.2-0.5,0.7-0.8,1.3-0.7l0,0c0.5,0.2,0.8,0.7,0.7,1.3l0,0c-0.1,0.4-0.5,0.7-1,0.7l0,0C36.5,38,36.4,38,36.3,38z M32.6,36.8     c-0.5-0.1-0.8-0.7-0.7-1.2l0,0c0.1-0.5,0.7-0.8,1.2-0.7l0,0c0.5,0.2,0.8,0.7,0.7,1.2l0,0c-0.1,0.4-0.5,0.7-1,0.7l0,0     C32.7,36.9,32.7,36.9,32.6,36.8z M28.8,35.8c-0.5-0.1-0.8-0.7-0.7-1.2l0,0c0.1-0.5,0.7-0.9,1.2-0.7l0,0c0.5,0.1,0.9,0.7,0.7,1.2     l0,0c-0.1,0.5-0.5,0.8-1,0.8l0,0C28.9,35.8,28.9,35.8,28.8,35.8z M25,34.9L25,34.9L25,34.9c-0.5-0.1-0.9-0.7-0.8-1.2l0,0     c0.1-0.5,0.7-0.9,1.2-0.8l0,0c0.5,0.1,0.9,0.6,0.8,1.2l0,0c-0.1,0.5-0.5,0.8-1,0.8l0,0C25.1,34.9,25,34.9,25,34.9z M21.1,34.1     L21.1,34.1L21.1,34.1c-0.5-0.1-0.9-0.6-0.8-1.2l0,0c0.1-0.5,0.6-0.9,1.2-0.8l0,0c0.5,0.1,0.9,0.6,0.8,1.2l0,0     c-0.1,0.5-0.5,0.8-1,0.8l0,0C21.2,34.1,21.2,34.1,21.1,34.1z M17.3,33.5c-0.5-0.1-0.9-0.6-0.9-1.1l0,0c0.1-0.5,0.6-0.9,1.1-0.9     l0,0c0.5,0.1,0.9,0.6,0.9,1.1l0,0c-0.1,0.5-0.5,0.9-1,0.9l0,0C17.3,33.5,17.3,33.5,17.3,33.5z M8.5,32.6     c-0.1-0.5,0.2-1.1,0.8-1.2l0,0c0.5-0.1,1.1,0.2,1.2,0.8l0,0c0.1,0.6-0.2,1.1-0.8,1.2l0,0c-0.1,0-0.1,0-0.2,0l0,0     C9,33.4,8.6,33.1,8.5,32.6z M13.4,33.2c-0.5,0-1-0.5-1-1l0,0c0-0.6,0.5-1,1-1l0,0c0.6,0,1,0.5,1,1l0,0     C14.4,32.7,14,33.2,13.4,33.2L13.4,33.2C13.4,33.2,13.4,33.2,13.4,33.2z"/>
		</g>
		<g>
			<linearGradient id="SVGID_3_" gradientUnits="userSpaceOnUse" x1="5.4854" y1="33.8482" x2="78.5807" y2="90.4776">
				<stop offset="0" style="stop-color:#0069FF"/>
				<stop offset="1" style="stop-color:#0069FF"/>
			</linearGradient>
			<path class="st3" d="M6.4,35.6c-0.3,0-0.5-0.1-0.7-0.3c-0.2-0.2-0.3-0.4-0.3-0.7c0-0.3,0.1-0.5,0.3-0.7c0.4-0.4,1-0.4,1.4,0     c0.2,0.2,0.3,0.4,0.3,0.7c0,0.3-0.1,0.5-0.3,0.7C6.9,35.5,6.7,35.6,6.4,35.6z"/>
		</g>
	</g>
	
		<linearGradient id="SVGID_4_" gradientUnits="userSpaceOnUse" x1="-3.8673" y1="131.4431" x2="83.5608" y2="131.4431" gradientTransform="matrix(1.0028 -1.527652e-02 -1.545745e-02 -1.0146 11.6677 184.1165)">
		<stop offset="0" style="stop-color:#0069FF;stop-opacity:0.6"/>
		<stop offset="0.2969" style="stop-color:#0069FF;stop-opacity:0"/>
		<stop offset="0.6911" style="stop-color:#0069FF;stop-opacity:0"/>
		<stop offset="1" style="stop-color:#0069FF;stop-opacity:0.6"/>
	</linearGradient>
	<path class="st4" d="M92.3,36.7c-2.2-5.6-23-3.3-46.5,5.3S5,61.9,7.2,67.5"/>
	
		<linearGradient id="SVGID_5_" gradientUnits="userSpaceOnUse" x1="17.8551" y1="92.685" x2="80.7707" y2="92.685" gradientTransform="matrix(1 0 0 -1 0 142.9938)">
		<stop offset="0" style="stop-color:#0069FF;stop-opacity:0.6"/>
		<stop offset="0.2969" style="stop-color:#0069FF;stop-opacity:0"/>
		<stop offset="0.6911" style="stop-color:#0069FF;stop-opacity:0"/>
		<stop offset="1" style="stop-color:#0069FF;stop-opacity:0.6"/>
	</linearGradient>
	<path class="st5" d="M18.9,62.4C17.7,58.9,30.3,51,47.1,45c16.8-6,31.5-8,32.7-4.4"/>
	<linearGradient id="SVGID_6_" gradientUnits="userSpaceOnUse" x1="50.8976" y1="22.0541" x2="50.8976" y2="77.6585">
		<stop offset="0" style="stop-color:#0069FF"/>
		<stop offset="1" style="stop-color:#0069FF"/>
	</linearGradient>
	<path class="st6" d="M30,55.7c0-15.7,20.9-32.4,20.9-32.4s20.9,17.2,20.9,32.4c0,11.6-9.4,20.9-20.9,20.9   C39.4,76.7,30,67.3,30,55.7z"/>
	<g>
		<path class="st0" d="M50.8,71.2c-8.6,0-15.6-7-15.6-15.6c0-11.2,14.2-22.7,14.8-23.2l0.8-0.6l0.8,0.6c0.6,0.5,14.8,12.3,14.8,23.2    C66.5,64.2,59.5,71.2,50.8,71.2L50.8,71.2z"/>
	</g>
	<g>
		
			<linearGradient id="SVGID_7_" gradientUnits="userSpaceOnUse" x1="38.4621" y1="97.4514" x2="65.6448" y2="81.7574" gradientTransform="matrix(1 0 0 -1 0 142.9938)">
			<stop offset="0" style="stop-color:#0069FF"/>
			<stop offset="1" style="stop-color:#0069FF;stop-opacity:0.2"/>
		</linearGradient>
		<path class="st7" d="M50.8,71.2c-8.6,0-15.6-7-15.6-15.6c0-11.2,14.2-22.7,14.8-23.2l0.8-0.6l0.8,0.6c0.6,0.5,14.8,12.3,14.8,23.2    C66.5,64.2,59.5,71.2,50.8,71.2L50.8,71.2z"/>
	</g>
	
		<linearGradient id="SVGID_8_" gradientUnits="userSpaceOnUse" x1="-3.6278" y1="127.6493" x2="83.8015" y2="127.6493" gradientTransform="matrix(1.0028 -1.527652e-02 -1.545745e-02 -1.0146 11.6677 184.1165)">
		<stop offset="0" style="stop-color:#0069FF;stop-opacity:0.6"/>
		<stop offset="0.5" style="stop-color:#0069FF"/>
		<stop offset="1" style="stop-color:#0069FF;stop-opacity:0.6"/>
	</linearGradient>
	<path class="st8" d="M92.3,36.7c2.2,5.6-15.1,17-38.6,25.5S9.4,73.1,7.2,67.5"/>
	
		<linearGradient id="SVGID_9_" gradientUnits="userSpaceOnUse" x1="17.9962" y1="90.1957" x2="80.9186" y2="90.1957" gradientTransform="matrix(1 0 0 -1 0 142.9938)">
		<stop offset="0" style="stop-color:#0069FF;stop-opacity:0.6"/>
		<stop offset="0.5" style="stop-color:#0069FF"/>
		<stop offset="1" style="stop-color:#0069FF;stop-opacity:0.6"/>
	</linearGradient>
	<path class="st9" d="M18.9,62.4c1.3,3.7,16,1.9,32.9-4.1s29.3-14.1,28-17.7"/>
	<g>
		<g>
			<linearGradient id="SVGID_10_" gradientUnits="userSpaceOnUse" x1="21.484" y1="13.7513" x2="94.5109" y2="70.3277">
				<stop offset="0" style="stop-color:#0069FF"/>
				<stop offset="1" style="stop-color:#0069FF"/>
			</linearGradient>
			<path class="st10" d="M93.6,70.6c-0.3,0-0.5-0.1-0.7-0.3c-0.2-0.2-0.3-0.4-0.3-0.7c0-0.3,0.1-0.5,0.3-0.7c0.3-0.4,1-0.4,1.4,0     c0.2,0.2,0.3,0.4,0.3,0.7c0,0.3-0.1,0.5-0.3,0.7C94.1,70.5,93.8,70.6,93.6,70.6z"/>
		</g>
		<g>
			<linearGradient id="SVGID_11_" gradientUnits="userSpaceOnUse" x1="13.0364" y1="27.4637" x2="84.6836" y2="82.9712">
				<stop offset="0" style="stop-color:#0069FF"/>
				<stop offset="1" style="stop-color:#0069FF"/>
			</linearGradient>
			<path class="st11" d="M86.5,73c-0.5,0-1-0.5-1-1l0,0c0-0.6,0.5-1,1-1l0,0c0.5,0,1,0.5,1,1l0,0C87.5,72.5,87.1,73,86.5,73L86.5,73     C86.5,73,86.5,73,86.5,73z M89.5,71.9c-0.1-0.5,0.2-1.1,0.8-1.2l0,0c0.5-0.1,1.1,0.2,1.2,0.8l0,0c0.1,0.5-0.2,1.1-0.8,1.2l0,0     c-0.1,0-0.1,0-0.2,0l0,0C90,72.7,89.6,72.4,89.5,71.9z M82.5,72.7C82.5,72.7,82.5,72.7,82.5,72.7L82.5,72.7     c-0.6-0.1-0.9-0.6-0.9-1.1l0,0c0.1-0.6,0.6-0.9,1.1-0.9l0,0c0.6,0.1,0.9,0.6,0.9,1.1l0,0c-0.1,0.5-0.5,0.9-1,0.9l0,0     C82.6,72.7,82.5,72.7,82.5,72.7z M78.5,72L78.5,72L78.5,72c-0.5-0.1-0.9-0.6-0.8-1.2l0,0c0.1-0.6,0.6-0.9,1.2-0.8l0,0     c0.5,0.1,0.9,0.6,0.8,1.2l0,0c-0.1,0.5-0.5,0.8-1,0.8l0,0C78.6,72.1,78.6,72,78.5,72z M74.6,71.2c-0.5-0.1-0.9-0.7-0.8-1.2l0,0     c0.1-0.5,0.7-0.9,1.2-0.8l0,0c0.5,0.1,0.9,0.7,0.8,1.2l0,0c-0.1,0.5-0.5,0.8-1,0.8l0,0C74.8,71.3,74.7,71.2,74.6,71.2z      M70.7,70.3c-0.5-0.1-0.9-0.7-0.7-1.2l0,0c0.1-0.5,0.7-0.9,1.2-0.7l0,0c0.5,0.1,0.9,0.7,0.7,1.2l0,0c-0.1,0.5-0.5,0.8-1,0.8l0,0     C70.9,70.3,70.8,70.3,70.7,70.3z M66.9,69.2c-0.5-0.2-0.8-0.7-0.7-1.2l0,0c0.2-0.5,0.7-0.8,1.2-0.7l0,0c0.5,0.2,0.8,0.7,0.7,1.2     l0,0c-0.1,0.4-0.5,0.7-1,0.7l0,0C67.1,69.3,67,69.3,66.9,69.2z M63.1,68.1L63.1,68.1L63.1,68.1c-0.5-0.2-0.8-0.7-0.7-1.2l0,0     c0.2-0.5,0.7-0.8,1.3-0.7h0c0.5,0.2,0.8,0.7,0.7,1.2l0,0c-0.1,0.4-0.5,0.7-1,0.7l0,0C63.3,68.1,63.2,68.1,63.1,68.1z M59.3,66.9     L59.3,66.9L59.3,66.9c-0.5-0.2-0.8-0.7-0.6-1.3l0,0c0.2-0.5,0.7-0.8,1.3-0.6h0c0.5,0.2,0.8,0.7,0.6,1.3l0,0     c-0.1,0.4-0.5,0.7-0.9,0.7l0,0C59.5,66.9,59.4,66.9,59.3,66.9z M55.5,65.6L55.5,65.6L55.5,65.6c-0.5-0.2-0.8-0.8-0.6-1.3l0,0     c0.2-0.5,0.8-0.8,1.3-0.6l0,0c0.5,0.2,0.8,0.8,0.6,1.3l0,0c-0.2,0.4-0.5,0.7-0.9,0.7l0,0C55.8,65.6,55.7,65.6,55.5,65.6z      M51.8,64.2c-0.5-0.2-0.8-0.8-0.6-1.3l0,0c0.2-0.5,0.8-0.8,1.3-0.6l0,0c0.5,0.2,0.8,0.8,0.6,1.3l0,0c-0.1,0.4-0.5,0.7-0.9,0.7     l0,0C52.1,64.2,51.9,64.2,51.8,64.2z M48.1,62.7c-0.5-0.2-0.8-0.8-0.6-1.3l0,0c0.2-0.5,0.8-0.8,1.3-0.6l0,0     c0.5,0.2,0.8,0.8,0.5,1.3l0,0c-0.1,0.4-0.5,0.6-0.9,0.6l0,0C48.4,62.8,48.2,62.8,48.1,62.7z M44.4,61.2c-0.5-0.2-0.8-0.8-0.5-1.3     l0,0c0.2-0.5,0.8-0.8,1.3-0.5l0,0c0.5,0.2,0.8,0.8,0.5,1.3l0,0c-0.2,0.4-0.5,0.6-0.9,0.6l0,0C44.7,61.3,44.6,61.3,44.4,61.2z      M40.8,59.7L40.8,59.7L40.8,59.7c-0.5-0.2-0.7-0.8-0.5-1.3l0,0c0.2-0.5,0.8-0.7,1.3-0.5l0,0c0.5,0.2,0.7,0.8,0.5,1.3l0,0     c-0.2,0.4-0.5,0.6-0.9,0.6l0,0C41,59.8,40.9,59.7,40.8,59.7z M37.1,58.1c-0.5-0.2-0.7-0.8-0.5-1.3l0,0c0.2-0.5,0.8-0.7,1.3-0.5     l0,0c0.5,0.2,0.7,0.8,0.5,1.3l0,0c-0.2,0.4-0.5,0.6-0.9,0.6l0,0C37.4,58.2,37.3,58.1,37.1,58.1z M33.6,56.4L33.6,56.4L33.6,56.4     c-0.5-0.2-0.7-0.8-0.5-1.3l0,0c0.2-0.5,0.8-0.7,1.3-0.5l0,0c0.5,0.2,0.7,0.8,0.5,1.3l0,0c-0.2,0.4-0.5,0.6-0.9,0.6l0,0     C33.8,56.5,33.7,56.4,33.6,56.4z M30,54.6C30,54.6,30,54.6,30,54.6L30,54.6c-0.5-0.2-0.7-0.9-0.4-1.3l0,0     c0.2-0.5,0.8-0.7,1.3-0.4l0,0c0.5,0.2,0.7,0.9,0.4,1.3l0,0c-0.2,0.4-0.5,0.5-0.9,0.5l0,0C30.3,54.7,30.1,54.7,30,54.6z      M26.5,52.8c-0.5-0.3-0.7-0.9-0.4-1.4l0,0c0.3-0.5,0.9-0.7,1.4-0.4l0,0c0.5,0.3,0.7,0.9,0.4,1.4l0,0c-0.2,0.3-0.5,0.5-0.9,0.5     l0,0C26.8,52.9,26.6,52.8,26.5,52.8z M23,50.8c-0.5-0.3-0.6-0.9-0.4-1.4l0,0c0.3-0.5,0.9-0.6,1.4-0.4l0,0     c0.5,0.3,0.6,0.9,0.4,1.4l0,0c-0.2,0.3-0.5,0.5-0.9,0.5l0,0C23.3,51,23.1,50.9,23,50.8z M19.5,48.8c-0.5-0.3-0.6-0.9-0.3-1.4l0,0     c0.3-0.5,0.9-0.6,1.4-0.3h0c0.5,0.3,0.6,0.9,0.3,1.4l0,0c-0.2,0.3-0.5,0.5-0.9,0.5l0,0C19.9,49,19.7,48.9,19.5,48.8z M16.2,46.7     c-0.5-0.3-0.6-0.9-0.3-1.4l0,0c0.3-0.5,0.9-0.6,1.4-0.3l0,0c0.5,0.3,0.6,0.9,0.3,1.4l0,0c-0.2,0.3-0.5,0.4-0.8,0.4l0,0     C16.5,46.8,16.3,46.8,16.2,46.7z M12.9,44.4C12.9,44.4,12.9,44.4,12.9,44.4L12.9,44.4c-0.5-0.3-0.5-1-0.2-1.4l0,0     c0.3-0.4,1-0.5,1.4-0.2l0,0c0.4,0.3,0.5,1,0.2,1.4l0,0c-0.2,0.3-0.5,0.4-0.8,0.4l0,0C13.3,44.6,13.1,44.5,12.9,44.4z M9.8,41.8     c-0.4-0.4-0.4-1-0.1-1.4l0,0c0.4-0.4,1-0.4,1.4-0.1l0,0c0.4,0.4,0.4,1,0.1,1.4l0,0c-0.2,0.2-0.5,0.3-0.7,0.3l0,0     C10.2,42.1,9.9,42,9.8,41.8z M6.9,38.8c-0.3-0.5-0.2-1.1,0.2-1.4l0,0c0.4-0.3,1.1-0.2,1.4,0.2l0,0C8.8,38,8.7,38.7,8.3,39l0,0     c-0.2,0.1-0.4,0.2-0.6,0.2l0,0C7.4,39.2,7.1,39.1,6.9,38.8z"/>
		</g>
		<g>
			<linearGradient id="SVGID_12_" gradientUnits="userSpaceOnUse" x1="5.63" y1="33.9609" x2="78.9123" y2="90.7351">
				<stop offset="0" style="stop-color:#0069FF"/>
				<stop offset="1" style="stop-color:#0069FF"/>
			</linearGradient>
			<path class="st12" d="M6.4,35.6c-0.3,0-0.5-0.1-0.7-0.3c-0.2-0.2-0.3-0.4-0.3-0.7c0-0.3,0.1-0.5,0.3-0.7c0.4-0.4,1-0.4,1.4,0     c0.2,0.2,0.3,0.4,0.3,0.7c0,0.3-0.1,0.5-0.3,0.7C6.9,35.5,6.7,35.6,6.4,35.6z"/>
		</g>
	</g>
</g>
</svg>