<?xml version="1.0" standalone="yes"?>

<svg version="1.1" viewBox="0.0 0.0 764.0 634.0" fill="none" stroke="none" stroke-linecap="square" stroke-miterlimit="10" xmlns="http://www.w3.org/2000/svg" xmlns:xlink="http://www.w3.org/1999/xlink"><clipPath id="p.0"><path d="m0 0l764.0 0l0 634.0l-764.0 0l0 -634.0z" clip-rule="nonzero"></path></clipPath><g clip-path="url(#p.0)"><path fill="#000000" fill-opacity="0.0" d="m0 0l764.18896 0l0 634.8793l-764.18896 0z" fill-rule="nonzero"></path><path fill="#cfe2f3" d="m5.4173226 6.7322836l752.15753 0l0 621.2598l-752.15753 0z" fill-rule="nonzero"></path><path stroke="#000000" stroke-width="2.0" stroke-linejoin="round" stroke-linecap="butt" d="m5.4173226 6.7322836l752.15753 0l0 621.2598l-752.15753 0z" fill-rule="nonzero"></path><path fill="#cfe2f3" d="m30.934383 93.267715l310.61417 0l0 220.7559l-310.61417 0z" fill-rule="nonzero"></path><path stroke="#000000" stroke-width="2.0" stroke-linejoin="round" stroke-linecap="butt" d="m30.934383 93.267715l310.61417 0l0 220.7559l-310.61417 0z" fill-rule="nonzero"></path><path fill="#990055" d="m53.559383 200.68192q0 1.28125 -0.515625 2.234375q-0.515625 0.953125 -1.453125 1.59375q-0.921875 0.625 -2.234375 0.953125q-1.296875 0.3125 -2.875 0.3125q-0.703125 0 -1.40625 -0.0625q-0.703125 -0.046875 -1.359375 -0.140625q-0.65625 -0.078125 -1.234375 -0.1875q-0.5625 -0.109375 -1.03125 -0.234375l0 -2.34375q1.03125 0.375 2.296875 0.59375q1.28125 0.21875 2.921875 0.21875q1.171875 0 2.0 -0.171875q0.828125 -0.1875 1.34375 -0.546875q0.53125 -0.375 0.765625 -0.890625q0.25 -0.515625 0.25 -1.1875q0 -0.71875 -0.40625 -1.234375q-0.40625 -0.515625 -1.0625 -0.921875q-0.65625 -0.40625 -1.5 -0.734375q-0.84375 -0.34375 -1.71875 -0.6875q-0.875 -0.359375 -1.71875 -0.765625q-0.828125 -0.421875 -1.484375 -0.984375q-0.65625 -0.578125 -1.0625 -1.34375q-0.40625 -0.765625 -0.40625 -1.8125q0 -0.921875 0.375 -1.8125q0.390625 -0.890625 1.1875 -1.578125q0.8125 -0.6875 2.078125 -1.109375q1.265625 -0.421875 3.015625 -0.421875q0.453125 0 0.984375 0.046875q0.53125 0.03125 1.0625 0.109375q0.546875 0.0625 1.0625 0.171875q0.53125 0.09375 0.984375 0.203125l0 2.1875q-1.046875 -0.3125 -2.109375 -0.46875q-1.046875 -0.15625 -2.03125 -0.15625q-2.09375 0 -3.078125 0.703125q-0.984375 0.703125 -0.984375 1.875q0 0.71875 0.40625 1.25q0.40625 0.515625 1.0625 0.921875q0.65625 0.40625 1.484375 0.75q0.84375 0.328125 1.71875 0.6875q0.875 0.359375 1.71875 0.78125q0.84375 0.421875 1.5 1.0q0.65625 0.578125 1.046875 1.359375q0.40625 0.78125 0.40625 1.84375zm8.628906 -6.921875l-4.0625 0l0 -1.96875l6.468746 0l0 11.75l4.09375 0l0 1.984375l-10.999996 0l0 -1.984375l4.5 0l0 -9.78125zm0.84375 -7.71875q0.390625 0 0.734375 0.140625q0.3437462 0.140625 0.5937462 0.40625q0.25 0.265625 0.390625 0.609375q0.15625 0.328125 0.15625 0.71875q0 0.375 -0.15625 0.71875q-0.140625 0.34375 -0.390625 0.609375q-0.25 0.25 -0.5937462 0.40625q-0.34375 0.140625 -0.734375 0.140625q-0.40625 0 -0.75 -0.140625q-0.328125 -0.15625 -0.59375 -0.40625q-0.25 -0.265625 -0.390625 -0.609375q-0.140625 -0.34375 -0.140625 -0.71875q0 -0.390625 0.140625 -0.71875q0.140625 -0.34375 0.390625 -0.609375q0.265625 -0.265625 0.59375 -0.40625q0.34375 -0.140625 0.75 -0.140625zm9.878902 5.75l2.125 0l0.09375 2.21875q0.59375 -0.703125 1.15625 -1.171875q0.5625 -0.484375 1.09375 -0.765625q0.546875 -0.28125 1.109375 -0.390625q0.5625 -0.125 1.15625 -0.125q2.125 0 3.203125 1.25q1.09375 1.25 1.09375 3.765625l0 8.953125l-2.375 0l0 -8.765625q0 -1.609375 -0.609375 -2.375q-0.59375 -0.78125 -1.78125 -0.78125q-0.4375 0 -0.859375 0.140625q-0.421875 0.125 -0.875 0.453125q-0.4375 0.3125 -0.96875 0.859375q-0.53125 0.546875 -1.1875 1.359375l0 9.109375l-2.375 0l0 -13.734375zm25.285156 1.953125q0.375 0.46875 0.578125 1.109375q0.21875 0.640625 0.21875 1.375q0 1.0625 -0.390625 1.953125q-0.390625 0.875 -1.109375 1.515625q-0.703125 0.625 -1.6875 0.96875q-0.984375 0.34375 -2.1875 0.34375q-0.859375 0 -1.609375 -0.171875q-0.75 -0.1875 -1.1875 -0.46875q-0.265625 0.390625 -0.4375 0.734375q-0.171875 0.328125 -0.171875 0.75q0 0.53125 0.5 0.875q0.5 0.328125 1.3125 0.359375l3.609375 0.140625q1.03125 0.03125 1.890625 0.265625q0.875 0.21875 1.484375 0.65625q0.625 0.4375 0.96875 1.09375q0.359375 0.640625 0.359375 1.484375q0 0.921875 -0.40625 1.734375q-0.390625 0.828125 -1.21875 1.4375q-0.828125 0.625 -2.09375 1.0q-1.265625 0.375 -3.015625 0.375q-1.671875 0 -2.84375 -0.28125q-1.171875 -0.265625 -1.921875 -0.734375q-0.75 -0.46875 -1.09375 -1.125q-0.34375 -0.640625 -0.34375 -1.421875q0 -1.0 0.46875 -1.75q0.46875 -0.75 1.4375 -1.453125q-0.359375 -0.15625 -0.625 -0.40625q-0.25 -0.25 -0.421875 -0.53125q-0.15625 -0.296875 -0.25 -0.625q-0.078125 -0.328125 -0.078125 -0.65625q0 -0.875 0.421875 -1.609375q0.421875 -0.75 1.0 -1.40625q-0.265625 -0.3125 -0.46875 -0.609375q-0.1875 -0.3125 -0.34375 -0.65625q-0.140625 -0.34375 -0.21875 -0.75q-0.0625 -0.40625 -0.0625 -0.921875q0 -1.0625 0.375 -1.9375q0.390625 -0.890625 1.09375 -1.515625q0.71875 -0.640625 1.703125 -0.984375q0.984375 -0.34375 2.1875 -0.34375q0.515625 0 0.96875 0.0625q0.46875 0.0625 0.828125 0.171875l4.984375 0l0 1.953125l-2.203125 0zm-8.265625 13.765625q0 0.96875 1.015625 1.40625q1.015625 0.453125 2.8125 0.453125q1.140625 0 1.90625 -0.203125q0.78125 -0.203125 1.25 -0.546875q0.46875 -0.328125 0.671875 -0.765625q0.203125 -0.421875 0.203125 -0.875q0 -0.84375 -0.6875 -1.234375q-0.671875 -0.390625 -2.078125 -0.46875l-3.59375 -0.125q-0.4375 0.3125 -0.734375 0.59375q-0.296875 0.28125 -0.46875 0.578125q-0.15625 0.296875 -0.234375 0.59375q-0.0625 0.296875 -0.0625 0.59375zm0.734375 -11.234375q0 0.65625 0.21875 1.203125q0.21875 0.546875 0.609375 0.9375q0.390625 0.375 0.921875 0.59375q0.546875 0.21875 1.203125 0.21875q0.71875 0 1.265625 -0.234375q0.5625 -0.25 0.9375 -0.65625q0.375 -0.421875 0.5625 -0.953125q0.203125 -0.53125 0.203125 -1.109375q0 -0.65625 -0.21875 -1.203125q-0.21875 -0.546875 -0.609375 -0.921875q-0.390625 -0.390625 -0.9375 -0.59375q-0.546875 -0.21875 -1.203125 -0.21875q-0.703125 0 -1.265625 0.25q-0.546875 0.25 -0.921875 0.65625q-0.375 0.390625 -0.578125 0.9375q-0.1875 0.53125 -0.1875 1.09375zm24.066406 9.25l-2.125 0l-0.09375 -2.21875q-0.609375 0.71875 -1.171875 1.1875q-0.546875 0.46875 -1.09375 0.765625q-0.546875 0.28125 -1.109375 0.390625q-0.546875 0.125 -1.15625 0.125q-2.125 0 -3.203125 -1.25q-1.078125 -1.25 -1.078125 -3.765625l0 -8.96875l2.375 0l0 8.78125q0 3.15625 2.390625 3.15625q0.4375 0 0.84375 -0.125q0.421875 -0.125 0.875 -0.4375q0.46875 -0.328125 0.984375 -0.875q0.53125 -0.546875 1.1875 -1.390625l0 -9.109375l2.375 0l0 13.734375zm9.035156 -17.359375l-4.0625 0l0 -1.953125l6.46875 0l0 17.328125l4.0937576 0l0 1.984375l-11.000008 0l0 -1.984375l4.5 0l0 -15.375zm19.535164 17.359375l-0.046875 -1.84375q-1.125 1.109375 -2.28125 1.609375q-1.15625 0.484375 -2.421875 0.484375q-1.171875 0 -2.015625 -0.296875q-0.828125 -0.3125 -1.375 -0.828125q-0.53125 -0.53125 -0.796875 -1.234375q-0.25 -0.71875 -0.25 -1.5625q0 -2.0625 1.53125 -3.21875q1.546875 -1.171875 4.5625 -1.171875l2.84375 0l0 -1.203125q0 -1.21875 -0.78125 -1.953125q-0.78125 -0.734375 -2.375 -0.734375q-1.171875 0 -2.296875 0.265625q-1.125 0.25 -2.328125 0.734375l0 -2.140625q0.453125 -0.171875 1.0 -0.328125q0.5625 -0.15625 1.171875 -0.28125q0.609375 -0.125 1.28125 -0.1875q0.671875 -0.078125 1.359375 -0.078125q1.25 0 2.234375 0.28125q1.0 0.265625 1.6875 0.828125q0.703125 0.546875 1.0625 1.40625q0.375 0.84375 0.375 1.984375l0 9.46875l-2.140625 0zm-0.25 -6.25l-3.03125 0q-0.875 0 -1.53125 0.1875q-0.640625 0.171875 -1.046875 0.5q-0.40625 0.328125 -0.609375 0.78125q-0.203125 0.453125 -0.203125 1.03125q0 0.40625 0.125 0.765625q0.125 0.359375 0.390625 0.640625q0.28125 0.28125 0.71875 0.453125q0.4375 0.15625 1.0625 0.15625q0.828125 0 1.890625 -0.5q1.0625 -0.5 2.234375 -1.578125l0 -2.4375zm7.3945312 -7.484375l2.171875 0l0.0625 2.53125q1.21875 -1.453125 2.40625 -2.109375q1.1875 -0.65625 2.390625 -0.65625q2.125 0 3.21875 1.375q1.109375 1.375 1.03125 4.109375l-2.40625 0q0.03125 -1.8125 -0.53125 -2.625q-0.5625 -0.8125 -1.65625 -0.8125q-0.484375 0 -0.96875 0.171875q-0.484375 0.171875 -1.0 0.546875q-0.515625 0.375 -1.09375 0.96875q-0.5625 0.578125 -1.21875 1.421875l0 8.8125l-2.40625 0l0 -13.734375zm27.910156 13.734375l-2.65625 0l-1.25 -3.890625l-7.4375 0l-1.25 3.890625l-2.53125 0l5.9375 -17.875l3.328125 0l5.859375 17.875zm-4.59375 -6.078125l-3.03125 -9.546875l-3.015625 9.546875l6.046875 0zm17.785156 2.328125q0 0.734375 -0.25 1.3125q-0.25 0.5625 -0.671875 1.015625q-0.421875 0.4375 -0.984375 0.75q-0.5625 0.3125 -1.203125 0.53125q-0.625 0.203125 -1.296875 0.296875q-0.671875 0.09375 -1.3125 0.09375q-1.390625 0 -2.5625 -0.125q-1.171875 -0.125 -2.296875 -0.40625l0 -2.1875q1.203125 0.34375 2.390625 0.53125q1.203125 0.171875 2.375 0.171875q1.703125 0 2.515625 -0.453125q0.828125 -0.46875 0.828125 -1.34375q0 -0.359375 -0.125 -0.65625q-0.125 -0.296875 -0.46875 -0.5625q-0.34375 -0.265625 -1.0625 -0.546875q-0.71875 -0.296875 -1.96875 -0.65625q-0.921875 -0.28125 -1.71875 -0.625q-0.78125 -0.34375 -1.359375 -0.828125q-0.5625 -0.484375 -0.890625 -1.125q-0.328125 -0.640625 -0.328125 -1.515625q0 -0.578125 0.265625 -1.25q0.265625 -0.6875 0.90625 -1.265625q0.640625 -0.59375 1.734375 -0.984375q1.09375 -0.390625 2.734375 -0.390625q0.8125 0 1.796875 0.09375q0.984375 0.078125 2.046875 0.296875l0 2.125q-1.125 -0.28125 -2.125 -0.40625q-1.0 -0.125 -1.75 -0.125q-0.890625 0 -1.5 0.140625q-0.59375 0.125 -0.984375 0.375q-0.375 0.234375 -0.546875 0.5625q-0.15625 0.3125 -0.15625 0.671875q0 0.375 0.140625 0.6875q0.15625 0.296875 0.546875 0.578125q0.390625 0.265625 1.078125 0.546875q0.703125 0.28125 1.828125 0.609375q1.21875 0.359375 2.046875 0.75q0.828125 0.390625 1.34375 0.875q0.53125 0.46875 0.75 1.078125q0.234375 0.59375 0.234375 1.359375zm15.394531 0q0 0.734375 -0.25 1.3125q-0.25 0.5625 -0.671875 1.015625q-0.421875 0.4375 -0.984375 0.75q-0.5625 0.3125 -1.203125 0.53125q-0.625 0.203125 -1.296875 0.296875q-0.671875 0.09375 -1.3125 0.09375q-1.390625 0 -2.5625 -0.125q-1.171875 -0.125 -2.296875 -0.40625l0 -2.1875q1.203125 0.34375 2.390625 0.53125q1.203125 0.171875 2.375 0.171875q1.703125 0 2.515625 -0.453125q0.828125 -0.46875 0.828125 -1.34375q0 -0.359375 -0.125 -0.65625q-0.125 -0.296875 -0.46875 -0.5625q-0.34375 -0.265625 -1.0625 -0.546875q-0.71875 -0.296875 -1.96875 -0.65625q-0.921875 -0.28125 -1.71875 -0.625q-0.78125 -0.34375 -1.359375 -0.828125q-0.5625 -0.484375 -0.890625 -1.125q-0.328125 -0.640625 -0.328125 -1.515625q0 -0.578125 0.265625 -1.25q0.265625 -0.6875 0.90625 -1.265625q0.640625 -0.59375 1.734375 -0.984375q1.09375 -0.390625 2.734375 -0.390625q0.8125 0 1.796875 0.09375q0.984375 0.078125 2.046875 0.296875l0 2.125q-1.125 -0.28125 -2.125 -0.40625q-1.0 -0.125 -1.75 -0.125q-0.890625 0 -1.5 0.140625q-0.59375 0.125 -0.984375 0.375q-0.375 0.234375 -0.546875 0.5625q-0.15625 0.3125 -0.15625 0.671875q0 0.375 0.140625 0.6875q0.15625 0.296875 0.546875 0.578125q0.390625 0.265625 1.078125 0.546875q0.703125 0.28125 1.828125 0.609375q1.21875 0.359375 2.046875 0.75q0.828125 0.390625 1.34375 0.875q0.53125 0.46875 0.75 1.078125q0.234375 0.59375 0.234375 1.359375zm16.472656 -3.21875q0 1.59375 -0.453125 2.9375q-0.453125 1.328125 -1.296875 2.28125q-0.84375 0.9375 -2.0625 1.46875q-1.21875 0.53125 -2.765625 0.53125q-1.484375 0 -2.65625 -0.453125q-1.15625 -0.46875 -1.96875 -1.359375q-0.8125 -0.890625 -1.25 -2.203125q-0.421875 -1.3125 -0.421875 -3.015625q0 -1.59375 0.4375 -2.90625q0.453125 -1.328125 1.296875 -2.28125q0.859375 -0.953125 2.078125 -1.46875q1.21875 -0.53125 2.75 -0.53125q1.484375 0 2.65625 0.453125q1.171875 0.453125 1.984375 1.34375q0.8125 0.875 1.234375 2.1875q0.4375 1.3125 0.4375 3.015625zm-2.4375 0.109375q0 -1.28125 -0.28125 -2.21875q-0.28125 -0.953125 -0.796875 -1.59375q-0.515625 -0.640625 -1.265625 -0.953125q-0.75 -0.328125 -1.65625 -0.328125q-1.078125 0 -1.84375 0.421875q-0.75 0.421875 -1.234375 1.125q-0.484375 0.6875 -0.71875 1.609375q-0.21875 0.921875 -0.21875 1.9375q0 1.265625 0.28125 2.234375q0.28125 0.953125 0.796875 1.59375q0.53125 0.625 1.265625 0.953125q0.734375 0.3125 1.671875 0.3125q1.0625 0 1.8125 -0.40625q0.765625 -0.421875 1.25 -1.125q0.484375 -0.703125 0.703125 -1.625q0.234375 -0.921875 0.234375 -1.9375zm16.550781 6.359375q-0.9375 0.34375 -1.921875 0.515625q-0.96875 0.171875 -2.015625 0.171875q-3.25 0 -5.015625 -1.765625q-1.75 -1.765625 -1.75 -5.15625q0 -1.625 0.5 -2.9375q0.515625 -1.328125 1.421875 -2.265625q0.921875 -0.953125 2.1875 -1.46875q1.28125 -0.515625 2.8125 -0.515625q1.0625 0 1.984375 0.15625q0.9375 0.140625 1.796875 0.484375l0 2.28125q-0.890625 -0.46875 -1.8125 -0.671875q-0.921875 -0.21875 -1.90625 -0.21875q-0.921875 0 -1.734375 0.34375q-0.8125 0.34375 -1.4375 1.0q-0.609375 0.65625 -0.96875 1.609375q-0.34375 0.9375 -0.34375 2.125q0 2.484375 1.203125 3.734375q1.203125 1.234375 3.359375 1.234375q0.96875 0 1.875 -0.21875q0.90625 -0.21875 1.765625 -0.65625l0 2.21875zm9.394531 -11.265625l-4.0625 0l0 -1.96875l6.46875 0l0 11.75l4.09375 0l0 1.984375l-11.0 0l0 -1.984375l4.5 0l0 -9.78125zm0.84375 -7.71875q0.390625 0 0.734375 0.140625q0.34375 0.140625 0.59375 0.40625q0.25 0.265625 0.390625 0.609375q0.15625 0.328125 0.15625 0.71875q0 0.375 -0.15625 0.71875q-0.140625 0.34375 -0.390625 0.609375q-0.25 0.25 -0.59375 0.40625q-0.34375 0.140625 -0.734375 0.140625q-0.40625 0 -0.75 -0.140625q-0.328125 -0.15625 -0.59375 -0.40625q-0.25 -0.265625 -0.390625 -0.609375q-0.140625 -0.34375 -0.140625 -0.71875q0 -0.390625 0.140625 -0.71875q0.140625 -0.34375 0.390625 -0.609375q0.265625 -0.265625 0.59375 -0.40625q0.34375 -0.140625 0.75 -0.140625zm18.691406 19.484375l-0.046875 -1.84375q-1.125 1.109375 -2.28125 1.609375q-1.15625 0.484375 -2.421875 0.484375q-1.171875 0 -2.015625 -0.296875q-0.828125 -0.3125 -1.375 -0.828125q-0.53125 -0.53125 -0.796875 -1.234375q-0.25 -0.71875 -0.25 -1.5625q0 -2.0625 1.53125 -3.21875q1.546875 -1.171875 4.5625 -1.171875l2.84375 0l0 -1.203125q0 -1.21875 -0.78125 -1.953125q-0.78125 -0.734375 -2.375 -0.734375q-1.171875 0 -2.296875 0.265625q-1.125 0.25 -2.328125 0.734375l0 -2.140625q0.453125 -0.171875 1.0 -0.328125q0.5625 -0.15625 1.171875 -0.28125q0.609375 -0.125 1.28125 -0.1875q0.671875 -0.078125 1.359375 -0.078125q1.25 0 2.234375 0.28125q1.0 0.265625 1.6875 0.828125q0.703125 0.546875 1.0625 1.40625q0.375 0.84375 0.375 1.984375l0 9.46875l-2.140625 0zm-0.25 -6.25l-3.03125 0q-0.875 0 -1.53125 0.1875q-0.640625 0.171875 -1.046875 0.5q-0.40625 0.328125 -0.609375 0.78125q-0.203125 0.453125 -0.203125 1.03125q0 0.40625 0.125 0.765625q0.125 0.359375 0.390625 0.640625q0.28125 0.28125 0.71875 0.453125q0.4375 0.15625 1.0625 0.15625q0.828125 0 1.890625 -0.5q1.0625 -0.5 2.234375 -1.578125l0 -2.4375zm17.894531 6.0625q-0.8125 0.203125 -1.671875 0.28125q-0.859375 0.09375 -1.75 0.09375q-2.578125 0 -3.859375 -1.15625q-1.265625 -1.171875 -1.265625 -3.59375l0 -7.171875l-3.84375 0l0 -2.0l3.84375 0l0 -3.765625l2.375 -0.609375l0 4.375l6.171875 0l0 2.0l-6.171875 0l0 6.96875q0 1.484375 0.78125 2.21875q0.796875 0.734375 2.328125 0.734375q0.65625 0 1.4375 -0.109375q0.78125 -0.109375 1.625 -0.328125l0 2.0625zm9.003906 -11.578125l-4.0625 0l0 -1.96875l6.46875 0l0 11.75l4.09375 0l0 1.984375l-11.0 0l0 -1.984375l4.5 0l0 -9.78125zm0.84375 -7.71875q0.390625 0 0.734375 0.140625q0.34375 0.140625 0.59375 0.40625q0.25 0.265625 0.390625 0.609375q0.15625 0.328125 0.15625 0.71875q0 0.375 -0.15625 0.71875q-0.140625 0.34375 -0.390625 0.609375q-0.25 0.25 -0.59375 0.40625q-0.34375 0.140625 -0.734375 0.140625q-0.40625 0 -0.75 -0.140625q-0.328125 -0.15625 -0.59375 -0.40625q-0.25 -0.265625 -0.390625 -0.609375q-0.140625 -0.34375 -0.140625 -0.71875q0 -0.390625 0.140625 -0.71875q0.140625 -0.34375 0.390625 -0.609375q0.265625 -0.265625 0.59375 -0.40625q0.34375 -0.140625 0.75 -0.140625zm21.832031 12.515625q0 1.59375 -0.453125 2.9375q-0.453125 1.328125 -1.296875 2.28125q-0.84375 0.9375 -2.0625 1.46875q-1.21875 0.53125 -2.765625 0.53125q-1.484375 0 -2.65625 -0.453125q-1.15625 -0.46875 -1.96875 -1.359375q-0.8125 -0.890625 -1.25 -2.203125q-0.421875 -1.3125 -0.421875 -3.015625q0 -1.59375 0.4375 -2.90625q0.453125 -1.328125 1.296875 -2.28125q0.859375 -0.953125 2.078125 -1.46875q1.21875 -0.53125 2.75 -0.53125q1.484375 0 2.65625 0.453125q1.171875 0.453125 1.984375 1.34375q0.8125 0.875 1.234375 2.1875q0.4375 1.3125 0.4375 3.015625zm-2.4375 0.109375q0 -1.28125 -0.28125 -2.21875q-0.28125 -0.953125 -0.796875 -1.59375q-0.515625 -0.640625 -1.265625 -0.953125q-0.75 -0.328125 -1.65625 -0.328125q-1.078125 0 -1.84375 0.421875q-0.75 0.421875 -1.234375 1.125q-0.484375 0.6875 -0.71875 1.609375q-0.21875 0.921875 -0.21875 1.9375q0 1.265625 0.28125 2.234375q0.28125 0.953125 0.796875 1.59375q0.53125 0.625 1.265625 0.953125q0.734375 0.3125 1.671875 0.3125q1.0625 0 1.8125 -0.40625q0.765625 -0.421875 1.25 -1.125q0.484375 -0.703125 0.703125 -1.625q0.234375 -0.921875 0.234375 -1.9375zm5.8789062 -6.875l2.125 0l0.09375 2.21875q0.59375 -0.703125 1.15625 -1.171875q0.5625 -0.484375 1.09375 -0.765625q0.546875 -0.28125 1.109375 -0.390625q0.5625 -0.125 1.15625 -0.125q2.125 0 3.203125 1.25q1.09375 1.25 1.09375 3.765625l0 8.953125l-2.375 0l0 -8.765625q0 -1.609375 -0.609375 -2.375q-0.59375 -0.78125 -1.78125 -0.78125q-0.4375 0 -0.859375 0.140625q-0.421875 0.125 -0.875 0.453125q-0.4375 0.3125 -0.96875 0.859375q-0.53125 0.546875 -1.1875 1.359375l0 9.109375l-2.375 0l0 -13.734375z" fill-rule="nonzero"></path><path fill="#cfe2f3" d="m400.07086 93.267715l341.6693 0l0 220.7559l-341.6693 0z" fill-rule="nonzero"></path><path stroke="#000000" stroke-width="2.0" stroke-linejoin="round" stroke-linecap="butt" d="m400.07086 93.267715l341.6693 0l0 220.7559l-341.6693 0z" fill-rule="nonzero"></path><path fill="#990055" d="m422.68024 204.85379q-2.15625 0.890625 -4.5 0.890625q-3.796875 0 -5.828125 -2.265625q-2.015625 -2.265625 -2.015625 -6.6875q0 -2.15625 0.546875 -3.890625q0.5625 -1.734375 1.59375 -2.9375q1.046875 -1.21875 2.515625 -1.875q1.484375 -0.65625 3.328125 -0.65625q1.234375 0 2.296875 0.21875q1.078125 0.203125 2.0625 0.640625l0 2.40625q-0.96875 -0.546875 -2.015625 -0.8125q-1.03125 -0.28125 -2.265625 -0.28125q-1.265625 0 -2.28125 0.46875q-1.015625 0.46875 -1.734375 1.375q-0.703125 0.890625 -1.09375 2.1875q-0.375 1.28125 -0.375 2.9375q0 3.46875 1.40625 5.234375q1.40625 1.765625 4.125 1.765625q1.15625 0 2.203125 -0.265625q1.0625 -0.265625 2.03125 -0.75l0 2.296875zm15.925781 -6.296875q0 1.59375 -0.453125 2.9375q-0.453125 1.328125 -1.296875 2.28125q-0.84375 0.9375 -2.0625 1.46875q-1.21875 0.53125 -2.765625 0.53125q-1.484375 0 -2.65625 -0.453125q-1.15625 -0.46875 -1.96875 -1.359375q-0.8125 -0.890625 -1.25 -2.203125q-0.421875 -1.3125 -0.421875 -3.015625q0 -1.59375 0.4375 -2.90625q0.453125 -1.328125 1.296875 -2.28125q0.859375 -0.953125 2.078125 -1.46875q1.21875 -0.53125 2.75 -0.53125q1.484375 0 2.65625 0.453125q1.171875 0.453125 1.984375 1.34375q0.8125 0.875 1.234375 2.1875q0.4375 1.3125 0.4375 3.015625zm-2.4375 0.109375q0 -1.28125 -0.28125 -2.21875q-0.28125 -0.953125 -0.796875 -1.59375q-0.515625 -0.640625 -1.265625 -0.953125q-0.75 -0.328125 -1.65625 -0.328125q-1.078125 0 -1.84375 0.421875q-0.75 0.421875 -1.234375 1.125q-0.484375 0.6875 -0.71875 1.609375q-0.21875 0.921875 -0.21875 1.9375q0 1.265625 0.28125 2.234375q0.28125 0.953125 0.796875 1.59375q0.53125 0.625 1.265625 0.953125q0.734375 0.3125 1.671875 0.3125q1.0625 0 1.8125 -0.40625q0.765625 -0.421875 1.25 -1.125q0.484375 -0.703125 0.703125 -1.625q0.234375 -0.921875 0.234375 -1.9375zm10.550781 -10.5l-4.0625 0l0 -1.953125l6.46875 0l0 17.328125l4.09375 0l0 1.984375l-11.0 0l0 -1.984375l4.5 0l0 -15.375zm15.394531 0l-4.0625 0l0 -1.953125l6.46875 0l0 17.328125l4.09375 0l0 1.984375l-11.0 0l0 -1.984375l4.5 0l0 -15.375zm22.316406 9.765625q0 0.515625 -0.015625 0.859375q-0.015625 0.328125 -0.03125 0.640625l-9.640625 0q0 2.09375 1.171875 3.234375q1.171875 1.125 3.390625 1.125q0.59375 0 1.1875 -0.046875q0.609375 -0.046875 1.171875 -0.125q0.5625 -0.09375 1.078125 -0.1875q0.515625 -0.109375 0.953125 -0.234375l0 1.953125q-0.96875 0.28125 -2.203125 0.453125q-1.21875 0.171875 -2.53125 0.171875q-1.765625 0 -3.046875 -0.484375q-1.265625 -0.484375 -2.078125 -1.390625q-0.8125 -0.90625 -1.203125 -2.21875q-0.390625 -1.328125 -0.390625 -3.0q0 -1.4375 0.421875 -2.734375q0.421875 -1.296875 1.21875 -2.265625q0.796875 -0.984375 1.953125 -1.546875q1.171875 -0.578125 2.640625 -0.578125q1.4375 0 2.546875 0.453125q1.109375 0.4375 1.859375 1.265625q0.765625 0.828125 1.15625 2.015625q0.390625 1.1875 0.390625 2.640625zm-2.46875 -0.34375q0.03125 -0.90625 -0.1875 -1.65625q-0.21875 -0.765625 -0.671875 -1.3125q-0.453125 -0.546875 -1.140625 -0.859375q-0.6875 -0.3125 -1.59375 -0.3125q-0.765625 0 -1.421875 0.3125q-0.640625 0.296875 -1.109375 0.84375q-0.453125 0.546875 -0.75 1.3125q-0.28125 0.765625 -0.34375 1.671875l7.21875 0zm16.941406 7.4375q-0.9375 0.34375 -1.921875 0.515625q-0.96875 0.171875 -2.015625 0.171875q-3.25 0 -5.015625 -1.765625q-1.75 -1.765625 -1.75 -5.15625q0 -1.625 0.5 -2.9375q0.515625 -1.328125 1.421875 -2.265625q0.921875 -0.953125 2.1875 -1.46875q1.28125 -0.515625 2.8125 -0.515625q1.0625 0 1.984375 0.15625q0.9375 0.140625 1.796875 0.484375l0 2.28125q-0.890625 -0.46875 -1.8125 -0.671875q-0.921875 -0.21875 -1.90625 -0.21875q-0.921875 0 -1.734375 0.34375q-0.8125 0.34375 -1.4375 1.0q-0.609375 0.65625 -0.96875 1.609375q-0.34375 0.9375 -0.34375 2.125q0 2.484375 1.203125 3.734375q1.203125 1.234375 3.359375 1.234375q0.96875 0 1.875 -0.21875q0.90625 -0.21875 1.765625 -0.65625l0 2.21875zm15.785156 0.3125q-0.8125 0.203125 -1.671875 0.28125q-0.859375 0.09375 -1.75 0.09375q-2.578125 0 -3.859375 -1.15625q-1.265625 -1.171875 -1.265625 -3.59375l0 -7.171875l-3.84375 0l0 -2.0l3.84375 0l0 -3.765625l2.375 -0.609375l0 4.375l6.171875 0l0 2.0l-6.171875 0l0 6.96875q0 1.484375 0.78125 2.21875q0.796875 0.734375 2.328125 0.734375q0.65625 0 1.4375 -0.109375q0.78125 -0.109375 1.625 -0.328125l0 2.0625zm9.003906 -11.578125l-4.0625 0l0 -1.96875l6.46875 0l0 11.75l4.09375 0l0 1.984375l-11.0 0l0 -1.984375l4.5 0l0 -9.78125zm0.84375 -7.71875q0.390625 0 0.734375 0.140625q0.34375 0.140625 0.59375 0.40625q0.25 0.265625 0.390625 0.609375q0.15625 0.328125 0.15625 0.71875q0 0.375 -0.15625 0.71875q-0.140625 0.34375 -0.390625 0.609375q-0.25 0.25 -0.59375 0.40625q-0.34375 0.140625 -0.734375 0.140625q-0.40625 0 -0.75 -0.140625q-0.328125 -0.15625 -0.59375 -0.40625q-0.25 -0.265625 -0.390625 -0.609375q-0.140625 -0.34375 -0.140625 -0.71875q0 -0.390625 0.140625 -0.71875q0.140625 -0.34375 0.390625 -0.609375q0.265625 -0.265625 0.59375 -0.40625q0.34375 -0.140625 0.75 -0.140625zm21.832031 12.515625q0 1.59375 -0.453125 2.9375q-0.453125 1.328125 -1.296875 2.28125q-0.84375 0.9375 -2.0625 1.46875q-1.21875 0.53125 -2.765625 0.53125q-1.484375 0 -2.65625 -0.453125q-1.15625 -0.46875 -1.96875 -1.359375q-0.8125 -0.890625 -1.25 -2.203125q-0.421875 -1.3125 -0.421875 -3.015625q0 -1.59375 0.4375 -2.90625q0.453125 -1.328125 1.296875 -2.28125q0.859375 -0.953125 2.078125 -1.46875q1.21875 -0.53125 2.75 -0.53125q1.484375 0 2.65625 0.453125q1.171875 0.453125 1.984375 1.34375q0.8125 0.875 1.234375 2.1875q0.4375 1.3125 0.4375 3.015625zm-2.4375 0.109375q0 -1.28125 -0.28125 -2.21875q-0.28125 -0.953125 -0.796875 -1.59375q-0.515625 -0.640625 -1.265625 -0.953125q-0.75 -0.328125 -1.65625 -0.328125q-1.078125 0 -1.84375 0.421875q-0.75 0.421875 -1.234375 1.125q-0.484375 0.6875 -0.71875 1.609375q-0.21875 0.921875 -0.21875 1.9375q0 1.265625 0.28125 2.234375q0.28125 0.953125 0.796875 1.59375q0.53125 0.625 1.265625 0.953125q0.734375 0.3125 1.671875 0.3125q1.0625 0 1.8125 -0.40625q0.765625 -0.421875 1.25 -1.125q0.484375 -0.703125 0.703125 -1.625q0.234375 -0.921875 0.234375 -1.9375zm5.8789062 -6.875l2.125 0l0.09375 2.21875q0.59375 -0.703125 1.15625 -1.171875q0.5625 -0.484375 1.09375 -0.765625q0.546875 -0.28125 1.109375 -0.390625q0.5625 -0.125 1.15625 -0.125q2.125 0 3.203125 1.25q1.09375 1.25 1.09375 3.765625l0 8.953125l-2.375 0l0 -8.765625q0 -1.609375 -0.609375 -2.375q-0.59375 -0.78125 -1.78125 -0.78125q-0.4375 0 -0.859375 0.140625q-0.421875 0.125 -0.875 0.453125q-0.4375 0.3125 -0.96875 0.859375q-0.53125 0.546875 -1.1875 1.359375l0 9.109375l-2.375 0l0 -13.734375zm28.472656 13.734375l-2.65625 0l-1.25 -3.890625l-7.4375 0l-1.25 3.890625l-2.53125 0l5.9375 -17.875l3.328125 0l5.859375 17.875zm-4.59375 -6.078125l-3.03125 -9.546875l-3.015625 9.546875l6.046875 0zm17.785156 2.328125q0 0.734375 -0.25 1.3125q-0.25 0.5625 -0.671875 1.015625q-0.421875 0.4375 -0.984375 0.75q-0.5625 0.3125 -1.203125 0.53125q-0.625 0.203125 -1.296875 0.296875q-0.671875 0.09375 -1.3125 0.09375q-1.390625 0 -2.5625 -0.125q-1.171875 -0.125 -2.296875 -0.40625l0 -2.1875q1.203125 0.34375 2.390625 0.53125q1.203125 0.171875 2.375 0.171875q1.703125 0 2.515625 -0.453125q0.828125 -0.46875 0.828125 -1.34375q0 -0.359375 -0.125 -0.65625q-0.125 -0.296875 -0.46875 -0.5625q-0.34375 -0.265625 -1.0625 -0.546875q-0.71875 -0.296875 -1.96875 -0.65625q-0.921875 -0.28125 -1.71875 -0.625q-0.78125 -0.34375 -1.359375 -0.828125q-0.5625 -0.484375 -0.890625 -1.125q-0.328125 -0.640625 -0.328125 -1.515625q0 -0.578125 0.265625 -1.25q0.265625 -0.6875 0.90625 -1.265625q0.640625 -0.59375 1.734375 -0.984375q1.09375 -0.390625 2.734375 -0.390625q0.8125 0 1.796875 0.09375q0.984375 0.078125 2.046875 0.296875l0 2.125q-1.125 -0.28125 -2.125 -0.40625q-1.0 -0.125 -1.75 -0.125q-0.890625 0 -1.5 0.140625q-0.59375 0.125 -0.984375 0.375q-0.375 0.234375 -0.546875 0.5625q-0.15625 0.3125 -0.15625 0.671875q0 0.375 0.140625 0.6875q0.15625 0.296875 0.546875 0.578125q0.390625 0.265625 1.078125 0.546875q0.703125 0.28125 1.828125 0.609375q1.21875 0.359375 2.046875 0.75q0.828125 0.390625 1.34375 0.875q0.53125 0.46875 0.75 1.078125q0.234375 0.59375 0.234375 1.359375zm15.394531 0q0 0.734375 -0.25 1.3125q-0.25 0.5625 -0.671875 1.015625q-0.421875 0.4375 -0.984375 0.75q-0.5625 0.3125 -1.203125 0.53125q-0.625 0.203125 -1.296875 0.296875q-0.671875 0.09375 -1.3125 0.09375q-1.390625 0 -2.5625 -0.125q-1.171875 -0.125 -2.296875 -0.40625l0 -2.1875q1.203125 0.34375 2.390625 0.53125q1.203125 0.171875 2.375 0.171875q1.703125 0 2.515625 -0.453125q0.828125 -0.46875 0.828125 -1.34375q0 -0.359375 -0.125 -0.65625q-0.125 -0.296875 -0.46875 -0.5625q-0.34375 -0.265625 -1.0625 -0.546875q-0.71875 -0.296875 -1.96875 -0.65625q-0.921875 -0.28125 -1.71875 -0.625q-0.78125 -0.34375 -1.359375 -0.828125q-0.5625 -0.484375 -0.890625 -1.125q-0.328125 -0.640625 -0.328125 -1.515625q0 -0.578125 0.265625 -1.25q0.265625 -0.6875 0.90625 -1.265625q0.640625 -0.59375 1.734375 -0.984375q1.09375 -0.390625 2.734375 -0.390625q0.8125 0 1.796875 0.09375q0.984375 0.078125 2.046875 0.296875l0 2.125q-1.125 -0.28125 -2.125 -0.40625q-1.0 -0.125 -1.75 -0.125q-0.890625 0 -1.5 0.140625q-0.59375 0.125 -0.984375 0.375q-0.375 0.234375 -0.546875 0.5625q-0.15625 0.3125 -0.15625 0.671875q0 0.375 0.140625 0.6875q0.15625 0.296875 0.546875 0.578125q0.390625 0.265625 1.078125 0.546875q0.703125 0.28125 1.828125 0.609375q1.21875 0.359375 2.046875 0.75q0.828125 0.390625 1.34375 0.875q0.53125 0.46875 0.75 1.078125q0.234375 0.59375 0.234375 1.359375zm16.472656 -3.21875q0 1.59375 -0.453125 2.9375q-0.453125 1.328125 -1.296875 2.28125q-0.84375 0.9375 -2.0625 1.46875q-1.21875 0.53125 -2.765625 0.53125q-1.484375 0 -2.65625 -0.453125q-1.15625 -0.46875 -1.96875 -1.359375q-0.8125 -0.890625 -1.25 -2.203125q-0.421875 -1.3125 -0.421875 -3.015625q0 -1.59375 0.4375 -2.90625q0.453125 -1.328125 1.296875 -2.28125q0.859375 -0.953125 2.078125 -1.46875q1.21875 -0.53125 2.75 -0.53125q1.484375 0 2.65625 0.453125q1.171875 0.453125 1.984375 1.34375q0.8125 0.875 1.234375 2.1875q0.4375 1.3125 0.4375 3.015625zm-2.4375 0.109375q0 -1.28125 -0.28125 -2.21875q-0.28125 -0.953125 -0.796875 -1.59375q-0.515625 -0.640625 -1.265625 -0.953125q-0.75 -0.328125 -1.65625 -0.328125q-1.078125 0 -1.84375 0.421875q-0.75 0.421875 -1.234375 1.125q-0.484375 0.6875 -0.71875 1.609375q-0.21875 0.921875 -0.21875 1.9375q0 1.265625 0.28125 2.234375q0.28125 0.953125 0.796875 1.59375q0.53125 0.625 1.265625 0.953125q0.734375 0.3125 1.671875 0.3125q1.0625 0 1.8125 -0.40625q0.765625 -0.421875 1.25 -1.125q0.484375 -0.703125 0.703125 -1.625q0.234375 -0.921875 0.234375 -1.9375zm16.550781 6.359375q-0.9375 0.34375 -1.921875 0.515625q-0.96875 0.171875 -2.015625 0.171875q-3.25 0 -5.015625 -1.765625q-1.75 -1.765625 -1.75 -5.15625q0 -1.625 0.5 -2.9375q0.515625 -1.328125 1.421875 -2.265625q0.921875 -0.953125 2.1875 -1.46875q1.28125 -0.515625 2.8125 -0.515625q1.0625 0 1.984375 0.15625q0.9375 0.140625 1.796875 0.484375l0 2.28125q-0.890625 -0.46875 -1.8125 -0.671875q-0.921875 -0.21875 -1.90625 -0.21875q-0.921875 0 -1.734375 0.34375q-0.8125 0.34375 -1.4375 1.0q-0.609375 0.65625 -0.96875 1.609375q-0.34375 0.9375 -0.34375 2.125q0 2.484375 1.203125 3.734375q1.203125 1.234375 3.359375 1.234375q0.96875 0 1.875 -0.21875q0.90625 -0.21875 1.765625 -0.65625l0 2.21875zm9.394531 -11.265625l-4.0625 0l0 -1.96875l6.46875 0l0 11.75l4.09375 0l0 1.984375l-11.0 0l0 -1.984375l4.5 0l0 -9.78125zm0.84375 -7.71875q0.390625 0 0.734375 0.140625q0.34375 0.140625 0.59375 0.40625q0.25 0.265625 0.390625 0.609375q0.15625 0.328125 0.15625 0.71875q0 0.375 -0.15625 0.71875q-0.140625 0.34375 -0.390625 0.609375q-0.25 0.25 -0.59375 0.40625q-0.34375 0.140625 -0.734375 0.140625q-0.40625 0 -0.75 -0.140625q-0.328125 -0.15625 -0.59375 -0.40625q-0.25 -0.265625 -0.390625 -0.609375q-0.140625 -0.34375 -0.140625 -0.71875q0 -0.390625 0.140625 -0.71875q0.140625 -0.34375 0.390625 -0.609375q0.265625 -0.265625 0.59375 -0.40625q0.34375 -0.140625 0.75 -0.140625zm18.691406 19.484375l-0.046875 -1.84375q-1.125 1.109375 -2.28125 1.609375q-1.15625 0.484375 -2.421875 0.484375q-1.171875 0 -2.015625 -0.296875q-0.828125 -0.3125 -1.375 -0.828125q-0.53125 -0.53125 -0.796875 -1.234375q-0.25 -0.71875 -0.25 -1.5625q0 -2.0625 1.53125 -3.21875q1.546875 -1.171875 4.5625 -1.171875l2.84375 0l0 -1.203125q0 -1.21875 -0.78125 -1.953125q-0.78125 -0.734375 -2.375 -0.734375q-1.171875 0 -2.296875 0.265625q-1.125 0.25 -2.328125 0.734375l0 -2.140625q0.453125 -0.171875 1.0 -0.328125q0.5625 -0.15625 1.171875 -0.28125q0.609375 -0.125 1.28125 -0.1875q0.671875 -0.078125 1.359375 -0.078125q1.25 0 2.234375 0.28125q1.0 0.265625 1.6875 0.828125q0.703125 0.546875 1.0625 1.40625q0.375 0.84375 0.375 1.984375l0 9.46875l-2.140625 0zm-0.25 -6.25l-3.03125 0q-0.875 0 -1.53125 0.1875q-0.640625 0.171875 -1.046875 0.5q-0.40625 0.328125 -0.609375 0.78125q-0.203125 0.453125 -0.203125 1.03125q0 0.40625 0.125 0.765625q0.125 0.359375 0.390625 0.640625q0.28125 0.28125 0.71875 0.453125q0.4375 0.15625 1.0625 0.15625q0.828125 0 1.890625 -0.5q1.0625 -0.5 2.234375 -1.578125l0 -2.4375zm17.894531 6.0625q-0.8125 0.203125 -1.671875 0.28125q-0.859375 0.09375 -1.75 0.09375q-2.578125 0 -3.859375 -1.15625q-1.265625 -1.171875 -1.265625 -3.59375l0 -7.171875l-3.84375 0l0 -2.0l3.84375 0l0 -3.765625l2.375 -0.609375l0 4.375l6.171875 0l0 2.0l-6.171875 0l0 6.96875q0 1.484375 0.78125 2.21875q0.796875 0.734375 2.328125 0.734375q0.65625 0 1.4375 -0.109375q0.78125 -0.109375 1.625 -0.328125l0 2.0625zm9.003906 -11.578125l-4.0625 0l0 -1.96875l6.46875 0l0 11.75l4.09375 0l0 1.984375l-11.0 0l0 -1.984375l4.5 0l0 -9.78125zm0.84375 -7.71875q0.390625 0 0.734375 0.140625q0.34375 0.140625 0.59375 0.40625q0.25 0.265625 0.390625 0.609375q0.15625 0.328125 0.15625 0.71875q0 0.375 -0.15625 0.71875q-0.140625 0.34375 -0.390625 0.609375q-0.25 0.25 -0.59375 0.40625q-0.34375 0.140625 -0.734375 0.140625q-0.40625 0 -0.75 -0.140625q-0.328125 -0.15625 -0.59375 -0.40625q-0.25 -0.265625 -0.390625 -0.609375q-0.140625 -0.34375 -0.140625 -0.71875q0 -0.390625 0.140625 -0.71875q0.140625 -0.34375 0.390625 -0.609375q0.265625 -0.265625 0.59375 -0.40625q0.34375 -0.140625 0.75 -0.140625zm21.832031 12.515625q0 1.59375 -0.453125 2.9375q-0.453125 1.328125 -1.296875 2.28125q-0.84375 0.9375 -2.0625 1.46875q-1.21875 0.53125 -2.765625 0.53125q-1.484375 0 -2.65625 -0.453125q-1.15625 -0.46875 -1.96875 -1.359375q-0.8125 -0.890625 -1.25 -2.203125q-0.421875 -1.3125 -0.421875 -3.015625q0 -1.59375 0.4375 -2.90625q0.453125 -1.328125 1.296875 -2.28125q0.859375 -0.953125 2.078125 -1.46875q1.21875 -0.53125 2.75 -0.53125q1.484375 0 2.65625 0.453125q1.171875 0.453125 1.984375 1.34375q0.8125 0.875 1.234375 2.1875q0.4375 1.3125 0.4375 3.015625zm-2.4375 0.109375q0 -1.28125 -0.28125 -2.21875q-0.28125 -0.953125 -0.796875 -1.59375q-0.515625 -0.640625 -1.265625 -0.953125q-0.75 -0.328125 -1.65625 -0.328125q-1.078125 0 -1.84375 0.421875q-0.75 0.421875 -1.234375 1.125q-0.484375 0.6875 -0.71875 1.609375q-0.21875 0.921875 -0.21875 1.9375q0 1.265625 0.28125 2.234375q0.28125 0.953125 0.796875 1.59375q0.53125 0.625 1.265625 0.953125q0.734375 0.3125 1.671875 0.3125q1.0625 0 1.8125 -0.40625q0.765625 -0.421875 1.25 -1.125q0.484375 -0.703125 0.703125 -1.625q0.234375 -0.921875 0.234375 -1.9375zm5.8789062 -6.875l2.125 0l0.09375 2.21875q0.59375 -0.703125 1.15625 -1.171875q0.5625 -0.484375 1.09375 -0.765625q0.546875 -0.28125 1.109375 -0.390625q0.5625 -0.125 1.15625 -0.125q2.125 0 3.203125 1.25q1.09375 1.25 1.09375 3.765625l0 8.953125l-2.375 0l0 -8.765625q0 -1.609375 -0.609375 -2.375q-0.59375 -0.78125 -1.78125 -0.78125q-0.4375 0 -0.859375 0.140625q-0.421875 0.125 -0.875 0.453125q-0.4375 0.3125 -0.96875 0.859375q-0.53125 0.546875 -1.1875 1.359375l0 9.109375l-2.375 0l0 -13.734375z" fill-rule="nonzero"></path><path fill="#000000" fill-opacity="0.0" d="m5.4173226 25.593176l575.77954 0l0 52.15748l-575.77954 0z" fill-rule="nonzero"></path><path fill="#990055" d="m29.682947 69.473175l-2.65625 0l-1.25 -3.890625l-7.4375 0l-1.25 3.890625l-2.531249 0l5.937499 -17.875004l3.328125 0l5.859375 17.875004zm-4.59375 -6.078129l-3.03125 -9.546875l-3.015625 9.546875l6.046875 0zm17.582033 5.578129q-0.9375 0.34375 -1.921875 0.515625q-0.96875 0.171875 -2.015625 0.171875q-3.25 0 -5.015625 -1.765625q-1.7500019 -1.765625 -1.7500019 -5.156254q0 -1.625 0.5000019 -2.9375q0.515625 -1.328125 1.421875 -2.265625q0.921875 -0.953125 2.1875 -1.46875q1.28125 -0.515625 2.8125 -0.515625q1.0625 0 1.984375 0.15625q0.9375 0.140625 1.796875 0.484375l0 2.28125q-0.890625 -0.46875 -1.8125 -0.671875q-0.921875 -0.21875 -1.90625 -0.21875q-0.921875 0 -1.734375 0.34375q-0.8125 0.34375 -1.4375 1.0q-0.609375 0.65625 -0.96875 1.609375q-0.34375 0.9375 -0.34375 2.125q0 2.4843788 1.203125 3.7343788q1.203125 1.234375 3.359375 1.234375q0.96875 0 1.875 -0.21875q0.90625 -0.21875 1.765625 -0.65625l0 2.21875zm15.785156 0.3125q-0.8125 0.203125 -1.671875 0.28125q-0.859375 0.09375 -1.75 0.09375q-2.578125 0 -3.859375 -1.15625q-1.265625 -1.171875 -1.265625 -3.59375l0 -7.171879l-3.84375 0l0 -2.0l3.84375 0l0 -3.765625l2.375 -0.609375l0 4.375l6.171875 0l0 2.0l-6.171875 0l0 6.968754q0 1.484375 0.78125 2.21875q0.796875 0.734375 2.328125 0.734375q0.65625 0 1.4375 -0.109375q0.78125 -0.109375 1.625 -0.328125l0 2.0625zm9.003902 -11.578129l-4.062496 0l0 -1.96875l6.468746 0l0 11.750004l4.09375 0l0 1.984375l-10.999996 0l0 -1.984375l4.499996 0l0 -9.781254zm0.84375 -7.71875q0.390625 0 0.734375 0.140625q0.34375 0.140625 0.59375 0.40625q0.25 0.265625 0.390625 0.609375q0.15625 0.328125 0.15625 0.71875q0 0.375 -0.15625 0.71875q-0.140625 0.34375 -0.390625 0.609375q-0.25 0.25 -0.59375 0.40625q-0.34375 0.140625 -0.734375 0.140625q-0.40625 0 -0.75 -0.140625q-0.328125 -0.15625 -0.59375 -0.40625q-0.25 -0.265625 -0.390625 -0.609375q-0.140625 -0.34375 -0.140625 -0.71875q0 -0.390625 0.140625 -0.71875q0.140625 -0.34375 0.390625 -0.609375q0.265625 -0.265625 0.59375 -0.40625q0.34375 -0.140625 0.75 -0.140625zm8.597656 5.75l2.703125 0l3.359375 9.078129l0.734375 2.21875l0.75 -2.265625l3.328125 -9.031254l2.609375 0l-5.375 13.734379l-2.734375 0l-5.375 -13.734379zm28.269531 6.140625q0 0.515625 -0.015625 0.859375q-0.015625 0.328125 -0.03125 0.640625l-9.640625 0q0 2.0937538 1.171875 3.2343788q1.171875 1.125 3.390625 1.125q0.59375 0 1.1875 -0.046875q0.609375 -0.046875 1.171875 -0.125q0.5625 -0.09375 1.078125 -0.1875q0.515625 -0.109375 0.953125 -0.234375l0 1.953125q-0.96875 0.28125 -2.203125 0.453125q-1.21875 0.171875 -2.53125 0.171875q-1.765625 0 -3.046875 -0.484375q-1.265625 -0.484375 -2.078125 -1.390625q-0.8125 -0.90625 -1.203125 -2.21875q-0.390625 -1.328125 -0.390625 -3.0000038q0 -1.4375 0.421875 -2.734375q0.421875 -1.296875 1.21875 -2.265625q0.796875 -0.984375 1.953125 -1.546875q1.171875 -0.578125 2.640625 -0.578125q1.4375 0 2.546875 0.453125q1.109375 0.4375 1.859375 1.265625q0.765625 0.828125 1.15625 2.015625q0.390625 1.1875 0.390625 2.640625zm-2.46875 -0.34375q0.03125 -0.90625 -0.1875 -1.65625q-0.21875 -0.765625 -0.671875 -1.3125q-0.453125 -0.546875 -1.140625 -0.859375q-0.6875 -0.3125 -1.59375 -0.3125q-0.765625 0 -1.421875 0.3125q-0.640625 0.296875 -1.109375 0.84375q-0.453125 0.546875 -0.75 1.3125q-0.28125 0.765625 -0.34375 1.671875l7.21875 0zm16.957031 -7.859375l-7.578125 0l0 5.796875l7.1875 0l0 2.046875l-7.1875 0l0 7.953129l-2.5 0l0 -17.875004l10.078125 0l0 2.078125zm16.300789 8.203125q0 0.515625 -0.015625 0.859375q-0.015625 0.328125 -0.03125 0.640625l-9.640633 0q0 2.0937538 1.171875 3.2343788q1.1718826 1.125 3.3906326 1.125q0.59375 0 1.1875 -0.046875q0.609375 -0.046875 1.171875 -0.125q0.5625 -0.09375 1.078125 -0.1875q0.515625 -0.109375 0.953125 -0.234375l0 1.953125q-0.96875 0.28125 -2.203125 0.453125q-1.21875 0.171875 -2.53125 0.171875q-1.765625 0 -3.0468826 -0.484375q-1.265625 -0.484375 -2.078125 -1.390625q-0.8125 -0.90625 -1.203125 -2.21875q-0.390625 -1.328125 -0.390625 -3.0000038q0 -1.4375 0.421875 -2.734375q0.421875 -1.296875 1.21875 -2.265625q0.796875 -0.984375 1.953125 -1.546875q1.1718826 -0.578125 2.6406326 -0.578125q1.4375 0 2.546875 0.453125q1.109375 0.4375 1.859375 1.265625q0.765625 0.828125 1.15625 2.015625q0.390625 1.1875 0.390625 2.640625zm-2.46875 -0.34375q0.03125 -0.90625 -0.1875 -1.65625q-0.21875 -0.765625 -0.671875 -1.3125q-0.453125 -0.546875 -1.140625 -0.859375q-0.6875 -0.3125 -1.59375 -0.3125q-0.765625 0 -1.421875 0.3125q-0.6406326 0.296875 -1.1093826 0.84375q-0.453125 0.546875 -0.75 1.3125q-0.28125 0.765625 -0.34375 1.671875l7.2187576 0zm5.5664062 1.359375q0 -1.75 0.484375 -3.109375q0.484375 -1.359375 1.359375 -2.296875q0.890625 -0.9375 2.125 -1.421875q1.234375 -0.484375 2.75 -0.484375q0.65625 0 1.28125 0.078125q0.640625 0.078125 1.265625 0.265625l0 -5.765625l2.390625 0l0 19.312504l-2.140625 0l-0.078125 -2.59375q-1.0 1.4375 -2.15625 2.140625q-1.15625 0.703125 -2.515625 0.703125q-1.171875 0 -2.078125 -0.484375q-0.890625 -0.5 -1.484375 -1.390625q-0.59375 -0.90625 -0.90625 -2.15625q-0.296875 -1.265625 -0.296875 -2.7968788zm2.4375 -0.15625q0 2.5000038 0.734375 3.7187538q0.734375 1.21875 2.078125 1.21875q0.890625 0 1.890625 -0.796875q1.015625 -0.8125 2.125 -2.390625l0 -6.375004q-0.59375 -0.28125 -1.3125 -0.421875q-0.703125 -0.140625 -1.390625 -0.140625q-1.953125 0 -3.046875 1.265625q-1.078125 1.25 -1.078125 3.921875zm25.613281 -0.234375q0 1.5937538 -0.453125 2.9375038q-0.453125 1.328125 -1.296875 2.28125q-0.84375 0.9375 -2.0625 1.46875q-1.21875 0.53125 -2.765625 0.53125q-1.484375 0 -2.65625 -0.453125q-1.15625 -0.46875 -1.96875 -1.359375q-0.8125 -0.890625 -1.25 -2.203125q-0.421875 -1.3125 -0.421875 -3.0156288q0 -1.59375 0.4375 -2.90625q0.453125 -1.328125 1.296875 -2.28125q0.859375 -0.953125 2.078125 -1.46875q1.21875 -0.53125 2.75 -0.53125q1.484375 0 2.65625 0.453125q1.171875 0.453125 1.984375 1.34375q0.8125 0.875 1.234375 2.1875q0.4375 1.3125 0.4375 3.015625zm-2.4375 0.109375q0 -1.28125 -0.28125 -2.21875q-0.28125 -0.953125 -0.796875 -1.59375q-0.515625 -0.640625 -1.265625 -0.953125q-0.75 -0.328125 -1.65625 -0.328125q-1.078125 0 -1.84375 0.421875q-0.75 0.421875 -1.234375 1.125q-0.484375 0.6875 -0.71875 1.609375q-0.21875 0.921875 -0.21875 1.9375q0 1.265625 0.28125 2.2343788q0.28125 0.953125 0.796875 1.59375q0.53125 0.625 1.265625 0.953125q0.734375 0.3125 1.671875 0.3125q1.0625 0 1.8125 -0.40625q0.765625 -0.421875 1.25 -1.125q0.484375 -0.703125 0.703125 -1.625q0.234375 -0.9218788 0.234375 -1.9375038zm6.4414062 -6.875l2.171875 0l0.0625 2.53125q1.21875 -1.453125 2.40625 -2.109375q1.1875 -0.65625 2.390625 -0.65625q2.125 0 3.21875 1.375q1.109375 1.375 1.03125 4.109375l-2.40625 0q0.03125 -1.8125 -0.53125 -2.625q-0.5625 -0.8125 -1.65625 -0.8125q-0.484375 0 -0.96875 0.171875q-0.484375 0.171875 -1.0 0.546875q-0.515625 0.375 -1.09375 0.96875q-0.5625 0.578125 -1.21875 1.421875l0 8.812504l-2.40625 0l0 -13.734379zm23.644531 13.734379l-0.046875 -1.84375q-1.125 1.109375 -2.28125 1.609375q-1.15625 0.484375 -2.421875 0.484375q-1.171875 0 -2.015625 -0.296875q-0.828125 -0.3125 -1.375 -0.828125q-0.53125 -0.53125 -0.796875 -1.234375q-0.25 -0.71875 -0.25 -1.5625q0 -2.0625038 1.53125 -3.2187538q1.546875 -1.171875 4.5625 -1.171875l2.84375 0l0 -1.203125q0 -1.21875 -0.78125 -1.953125q-0.78125 -0.734375 -2.375 -0.734375q-1.171875 0 -2.296875 0.265625q-1.125 0.25 -2.328125 0.734375l0 -2.140625q0.453125 -0.171875 1.0 -0.328125q0.5625 -0.15625 1.171875 -0.28125q0.609375 -0.125 1.28125 -0.1875q0.671875 -0.078125 1.359375 -0.078125q1.25 0 2.234375 0.28125q1.0 0.265625 1.6875 0.828125q0.703125 0.546875 1.0625 1.40625q0.375 0.84375 0.375 1.984375l0 9.468754l-2.140625 0zm-0.25 -6.250004l-3.03125 0q-0.875 0 -1.53125 0.1875q-0.640625 0.171875 -1.046875 0.5q-0.40625 0.3281288 -0.609375 0.7812538q-0.203125 0.453125 -0.203125 1.03125q0 0.40625 0.125 0.765625q0.125 0.359375 0.390625 0.640625q0.28125 0.28125 0.71875 0.453125q0.4375 0.15625 1.0625 0.15625q0.828125 0 1.890625 -0.5q1.0625 -0.5 2.234375 -1.578125l0 -2.4375038zm12.347656 -7.71875q0.421875 0 0.796875 0.171875q0.390625 0.171875 0.671875 0.453125q0.296875 0.28125 0.453125 0.671875q0.171875 0.375 0.171875 0.796875q0 0.4375 -0.171875 0.828125q-0.15625 0.375 -0.453125 0.65625q-0.28125 0.28125 -0.671875 0.453125q-0.375 0.15625 -0.796875 0.15625q-0.4375 0 -0.8125 -0.15625q-0.375 -0.171875 -0.671875 -0.453125q-0.28125 -0.28125 -0.453125 -0.65625q-0.15625 -0.390625 -0.15625 -0.828125q0 -0.421875 0.15625 -0.796875q0.171875 -0.390625 0.453125 -0.671875q0.296875 -0.28125 0.671875 -0.453125q0.375 -0.171875 0.8125 -0.171875zm0 10.015629q0.421875 0 0.796875 0.171875q0.390625 0.171875 0.671875 0.46875q0.296875 0.28125 0.453125 0.671875q0.171875 0.375 0.171875 0.796875q0 0.4375 -0.171875 0.8125q-0.15625 0.375 -0.453125 0.671875q-0.28125 0.28125 -0.671875 0.4375q-0.375 0.171875 -0.796875 0.171875q-0.4375 0 -0.8125 -0.171875q-0.375 -0.15625 -0.671875 -0.4375q-0.28125 -0.296875 -0.453125 -0.671875q-0.15625 -0.375 -0.15625 -0.8125q0 -0.421875 0.15625 -0.796875q0.171875 -0.390625 0.453125 -0.671875q0.296875 -0.296875 0.671875 -0.46875q0.375 -0.171875 0.8125 -0.171875zm15.394531 -10.015629q0.421875 0 0.796875 0.171875q0.390625 0.171875 0.671875 0.453125q0.296875 0.28125 0.453125 0.671875q0.171875 0.375 0.171875 0.796875q0 0.4375 -0.171875 0.828125q-0.15625 0.375 -0.453125 0.65625q-0.28125 0.28125 -0.671875 0.453125q-0.375 0.15625 -0.796875 0.15625q-0.4375 0 -0.8125 -0.15625q-0.375 -0.171875 -0.671875 -0.453125q-0.28125 -0.28125 -0.453125 -0.65625q-0.15625 -0.390625 -0.15625 -0.828125q0 -0.421875 0.15625 -0.796875q0.171875 -0.390625 0.453125 -0.671875q0.296875 -0.28125 0.671875 -0.453125q0.375 -0.171875 0.8125 -0.171875zm0 10.015629q0.421875 0 0.796875 0.171875q0.390625 0.171875 0.671875 0.46875q0.296875 0.28125 0.453125 0.671875q0.171875 0.375 0.171875 0.796875q0 0.4375 -0.171875 0.8125q-0.15625 0.375 -0.453125 0.671875q-0.28125 0.28125 -0.671875 0.4375q-0.375 0.171875 -0.796875 0.171875q-0.4375 0 -0.8125 -0.171875q-0.375 -0.15625 -0.671875 -0.4375q-0.28125 -0.296875 -0.453125 -0.671875q-0.15625 -0.375 -0.15625 -0.8125q0 -0.421875 0.15625 -0.796875q0.171875 -0.390625 0.453125 -0.671875q0.296875 -0.296875 0.671875 -0.46875q0.375 -0.171875 0.8125 -0.171875zm22.957031 3.953125l-2.65625 0l-1.25 -3.890625l-7.4375 0l-1.25 3.890625l-2.53125 0l5.9375 -17.875004l3.328125 0l5.859375 17.875004zm-4.59375 -6.078129l-3.03125 -9.546875l-3.015625 9.546875l6.046875 0zm17.785156 2.3281288q0 0.734375 -0.25 1.3125q-0.25 0.5625 -0.671875 1.015625q-0.421875 0.4375 -0.984375 0.75q-0.5625 0.3125 -1.203125 0.53125q-0.625 0.203125 -1.296875 0.296875q-0.671875 0.09375 -1.3125 0.09375q-1.390625 0 -2.5625 -0.125q-1.171875 -0.125 -2.296875 -0.40625l0 -2.1875q1.203125 0.34375 2.390625 0.53125q1.203125 0.171875 2.375 0.171875q1.703125 0 2.515625 -0.453125q0.828125 -0.46875 0.828125 -1.34375q0 -0.359375 -0.125 -0.65625q-0.125 -0.296875 -0.46875 -0.5625q-0.34375 -0.265625 -1.0625 -0.546875q-0.71875 -0.2968788 -1.96875 -0.6562538q-0.921875 -0.28125 -1.71875 -0.625q-0.78125 -0.34375 -1.359375 -0.828125q-0.5625 -0.484375 -0.890625 -1.125q-0.328125 -0.640625 -0.328125 -1.515625q0 -0.578125 0.265625 -1.25q0.265625 -0.6875 0.90625 -1.265625q0.640625 -0.59375 1.734375 -0.984375q1.09375 -0.390625 2.734375 -0.390625q0.8125 0 1.796875 0.09375q0.984375 0.078125 2.046875 0.296875l0 2.125q-1.125 -0.28125 -2.125 -0.40625q-1.0 -0.125 -1.75 -0.125q-0.890625 0 -1.5 0.140625q-0.59375 0.125 -0.984375 0.375q-0.375 0.234375 -0.546875 0.5625q-0.15625 0.3125 -0.15625 0.671875q0 0.375 0.140625 0.6875q0.15625 0.296875 0.546875 0.578125q0.390625 0.265625 1.078125 0.546875q0.703125 0.28125 1.828125 0.609375q1.21875 0.359375 2.046875 0.75q0.828125 0.390625 1.34375 0.875q0.53125 0.46875 0.75 1.0781288q0.234375 0.59375 0.234375 1.359375zm15.394531 0q0 0.734375 -0.25 1.3125q-0.25 0.5625 -0.671875 1.015625q-0.421875 0.4375 -0.984375 0.75q-0.5625 0.3125 -1.203125 0.53125q-0.625 0.203125 -1.296875 0.296875q-0.671875 0.09375 -1.3125 0.09375q-1.390625 0 -2.5625 -0.125q-1.171875 -0.125 -2.296875 -0.40625l0 -2.1875q1.203125 0.34375 2.390625 0.53125q1.203125 0.171875 2.375 0.171875q1.703125 0 2.515625 -0.453125q0.828125 -0.46875 0.828125 -1.34375q0 -0.359375 -0.125 -0.65625q-0.125 -0.296875 -0.46875 -0.5625q-0.34375 -0.265625 -1.0625 -0.546875q-0.71875 -0.2968788 -1.96875 -0.6562538q-0.921875 -0.28125 -1.71875 -0.625q-0.78125 -0.34375 -1.359375 -0.828125q-0.5625 -0.484375 -0.890625 -1.125q-0.328125 -0.640625 -0.328125 -1.515625q0 -0.578125 0.265625 -1.25q0.265625 -0.6875 0.90625 -1.265625q0.640625 -0.59375 1.734375 -0.984375q1.09375 -0.390625 2.734375 -0.390625q0.8125 0 1.796875 0.09375q0.984375 0.078125 2.046875 0.296875l0 2.125q-1.125 -0.28125 -2.125 -0.40625q-1.0 -0.125 -1.75 -0.125q-0.890625 0 -1.5 0.140625q-0.59375 0.125 -0.984375 0.375q-0.375 0.234375 -0.546875 0.5625q-0.15625 0.3125 -0.15625 0.671875q0 0.375 0.140625 0.6875q0.15625 0.296875 0.546875 0.578125q0.390625 0.265625 1.078125 0.546875q0.703125 0.28125 1.828125 0.609375q1.21875 0.359375 2.046875 0.75q0.828125 0.390625 1.34375 0.875q0.53125 0.46875 0.75 1.0781288q0.234375 0.59375 0.234375 1.359375zm16.472656 -3.2187538q0 1.5937538 -0.453125 2.9375038q-0.453125 1.328125 -1.296875 2.28125q-0.84375 0.9375 -2.0625 1.46875q-1.21875 0.53125 -2.765625 0.53125q-1.484375 0 -2.65625 -0.453125q-1.15625 -0.46875 -1.96875 -1.359375q-0.8125 -0.890625 -1.25 -2.203125q-0.421875 -1.3125 -0.421875 -3.0156288q0 -1.59375 0.4375 -2.90625q0.453125 -1.328125 1.296875 -2.28125q0.859375 -0.953125 2.078125 -1.46875q1.21875 -0.53125 2.75 -0.53125q1.484375 0 2.65625 0.453125q1.171875 0.453125 1.984375 1.34375q0.8125 0.875 1.234375 2.1875q0.4375 1.3125 0.4375 3.015625zm-2.4375 0.109375q0 -1.28125 -0.28125 -2.21875q-0.28125 -0.953125 -0.796875 -1.59375q-0.515625 -0.640625 -1.265625 -0.953125q-0.75 -0.328125 -1.65625 -0.328125q-1.078125 0 -1.84375 0.421875q-0.75 0.421875 -1.234375 1.125q-0.484375 0.6875 -0.71875 1.609375q-0.21875 0.921875 -0.21875 1.9375q0 1.265625 0.28125 2.2343788q0.28125 0.953125 0.796875 1.59375q0.53125 0.625 1.265625 0.953125q0.734375 0.3125 1.671875 0.3125q1.0625 0 1.8125 -0.40625q0.765625 -0.421875 1.25 -1.125q0.484375 -0.703125 0.703125 -1.625q0.234375 -0.9218788 0.234375 -1.9375038zm16.550781 6.359379q-0.9375 0.34375 -1.921875 0.515625q-0.96875 0.171875 -2.015625 0.171875q-3.25 0 -5.015625 -1.765625q-1.75 -1.765625 -1.75 -5.156254q0 -1.625 0.5 -2.9375q0.515625 -1.328125 1.421875 -2.265625q0.921875 -0.953125 2.1875 -1.46875q1.28125 -0.515625 2.8125 -0.515625q1.0625 0 1.984375 0.15625q0.9375 0.140625 1.796875 0.484375l0 2.28125q-0.890625 -0.46875 -1.8125 -0.671875q-0.921875 -0.21875 -1.90625 -0.21875q-0.921875 0 -1.734375 0.34375q-0.8125 0.34375 -1.4375 1.0q-0.609375 0.65625 -0.96875 1.609375q-0.34375 0.9375 -0.34375 2.125q0 2.4843788 1.203125 3.7343788q1.203125 1.234375 3.359375 1.234375q0.96875 0 1.875 -0.21875q0.90625 -0.21875 1.765625 -0.65625l0 2.21875zm9.394531 -11.265629l-4.0625 0l0 -1.96875l6.46875 0l0 11.750004l4.09375 0l0 1.984375l-11.0 0l0 -1.984375l4.5 0l0 -9.781254zm0.84375 -7.71875q0.390625 0 0.734375 0.140625q0.34375 0.140625 0.59375 0.40625q0.25 0.265625 0.390625 0.609375q0.15625 0.328125 0.15625 0.71875q0 0.375 -0.15625 0.71875q-0.140625 0.34375 -0.390625 0.609375q-0.25 0.25 -0.59375 0.40625q-0.34375 0.140625 -0.734375 0.140625q-0.40625 0 -0.75 -0.140625q-0.328125 -0.15625 -0.59375 -0.40625q-0.25 -0.265625 -0.390625 -0.609375q-0.140625 -0.34375 -0.140625 -0.71875q0 -0.390625 0.140625 -0.71875q0.140625 -0.34375 0.390625 -0.609375q0.265625 -0.265625 0.59375 -0.40625q0.34375 -0.140625 0.75 -0.140625zm18.691406 19.484379l-0.046875 -1.84375q-1.125 1.109375 -2.28125 1.609375q-1.15625 0.484375 -2.421875 0.484375q-1.171875 0 -2.015625 -0.296875q-0.828125 -0.3125 -1.375 -0.828125q-0.53125 -0.53125 -0.796875 -1.234375q-0.25 -0.71875 -0.25 -1.5625q0 -2.0625038 1.53125 -3.2187538q1.546875 -1.171875 4.5625 -1.171875l2.84375 0l0 -1.203125q0 -1.21875 -0.78125 -1.953125q-0.78125 -0.734375 -2.375 -0.734375q-1.171875 0 -2.296875 0.265625q-1.125 0.25 -2.328125 0.734375l0 -2.140625q0.453125 -0.171875 1.0 -0.328125q0.5625 -0.15625 1.171875 -0.28125q0.609375 -0.125 1.28125 -0.1875q0.671875 -0.078125 1.359375 -0.078125q1.25 0 2.234375 0.28125q1.0 0.265625 1.6875 0.828125q0.703125 0.546875 1.0625 1.40625q0.375 0.84375 0.375 1.984375l0 9.468754l-2.140625 0zm-0.25 -6.250004l-3.03125 0q-0.875 0 -1.53125 0.1875q-0.640625 0.171875 -1.046875 0.5q-0.40625 0.3281288 -0.609375 0.7812538q-0.203125 0.453125 -0.203125 1.03125q0 0.40625 0.125 0.765625q0.125 0.359375 0.390625 0.640625q0.28125 0.28125 0.71875 0.453125q0.4375 0.15625 1.0625 0.15625q0.828125 0 1.890625 -0.5q1.0625 -0.5 2.234375 -1.578125l0 -2.4375038zm17.894531 6.062504q-0.8125 0.203125 -1.671875 0.28125q-0.859375 0.09375 -1.75 0.09375q-2.578125 0 -3.859375 -1.15625q-1.265625 -1.171875 -1.265625 -3.59375l0 -7.171879l-3.84375 0l0 -2.0l3.84375 0l0 -3.765625l2.375 -0.609375l0 4.375l6.171875 0l0 2.0l-6.171875 0l0 6.968754q0 1.484375 0.78125 2.21875q0.796875 0.734375 2.328125 0.734375q0.65625 0 1.4375 -0.109375q0.78125 -0.109375 1.625 -0.328125l0 2.0625zm9.003906 -11.578129l-4.0625 0l0 -1.96875l6.46875 0l0 11.750004l4.09375 0l0 1.984375l-11.0 0l0 -1.984375l4.5 0l0 -9.781254zm0.84375 -7.71875q0.390625 0 0.734375 0.140625q0.34375 0.140625 0.59375 0.40625q0.25 0.265625 0.390625 0.609375q0.15625 0.328125 0.15625 0.71875q0 0.375 -0.15625 0.71875q-0.140625 0.34375 -0.390625 0.609375q-0.25 0.25 -0.59375 0.40625q-0.34375 0.140625 -0.734375 0.140625q-0.40625 0 -0.75 -0.140625q-0.328125 -0.15625 -0.59375 -0.40625q-0.25 -0.265625 -0.390625 -0.609375q-0.140625 -0.34375 -0.140625 -0.71875q0 -0.390625 0.140625 -0.71875q0.140625 -0.34375 0.390625 -0.609375q0.265625 -0.265625 0.59375 -0.40625q0.34375 -0.140625 0.75 -0.140625zm21.832031 12.515625q0 1.5937538 -0.453125 2.9375038q-0.453125 1.328125 -1.296875 2.28125q-0.84375 0.9375 -2.0625 1.46875q-1.21875 0.53125 -2.765625 0.53125q-1.484375 0 -2.65625 -0.453125q-1.15625 -0.46875 -1.96875 -1.359375q-0.8125 -0.890625 -1.25 -2.203125q-0.421875 -1.3125 -0.421875 -3.0156288q0 -1.59375 0.4375 -2.90625q0.453125 -1.328125 1.296875 -2.28125q0.859375 -0.953125 2.078125 -1.46875q1.21875 -0.53125 2.75 -0.53125q1.484375 0 2.65625 0.453125q1.171875 0.453125 1.984375 1.34375q0.8125 0.875 1.234375 2.1875q0.4375 1.3125 0.4375 3.015625zm-2.4375 0.109375q0 -1.28125 -0.28125 -2.21875q-0.28125 -0.953125 -0.796875 -1.59375q-0.515625 -0.640625 -1.265625 -0.953125q-0.75 -0.328125 -1.65625 -0.328125q-1.078125 0 -1.84375 0.421875q-0.75 0.421875 -1.234375 1.125q-0.484375 0.6875 -0.71875 1.609375q-0.21875 0.921875 -0.21875 1.9375q0 1.265625 0.28125 2.2343788q0.28125 0.953125 0.796875 1.59375q0.53125 0.625 1.265625 0.953125q0.734375 0.3125 1.671875 0.3125q1.0625 0 1.8125 -0.40625q0.765625 -0.421875 1.25 -1.125q0.484375 -0.703125 0.703125 -1.625q0.234375 -0.9218788 0.234375 -1.9375038zm5.8789062 -6.875l2.125 0l0.09375 2.21875q0.59375 -0.703125 1.15625 -1.171875q0.5625 -0.484375 1.09375 -0.765625q0.546875 -0.28125 1.109375 -0.390625q0.5625 -0.125 1.15625 -0.125q2.125 0 3.203125 1.25q1.09375 1.25 1.09375 3.765625l0 8.953129l-2.375 0l0 -8.765629q0 -1.609375 -0.609375 -2.375q-0.59375 -0.78125 -1.78125 -0.78125q-0.4375 0 -0.859375 0.140625q-0.421875 0.125 -0.875 0.453125q-0.4375 0.3125 -0.96875 0.859375q-0.53125 0.546875 -1.1875 1.359375l0 9.109379l-2.375 0l0 -13.734379zm26.269531 9.984379q0 0.734375 -0.25 1.3125q-0.25 0.5625 -0.671875 1.015625q-0.421875 0.4375 -0.984375 0.75q-0.5625 0.3125 -1.203125 0.53125q-0.625 0.203125 -1.296875 0.296875q-0.671875 0.09375 -1.3125 0.09375q-1.390625 0 -2.5625 -0.125q-1.171875 -0.125 -2.296875 -0.40625l0 -2.1875q1.203125 0.34375 2.390625 0.53125q1.203125 0.171875 2.375 0.171875q1.703125 0 2.515625 -0.453125q0.828125 -0.46875 0.828125 -1.34375q0 -0.359375 -0.125 -0.65625q-0.125 -0.296875 -0.46875 -0.5625q-0.34375 -0.265625 -1.0625 -0.546875q-0.71875 -0.2968788 -1.96875 -0.6562538q-0.921875 -0.28125 -1.71875 -0.625q-0.78125 -0.34375 -1.359375 -0.828125q-0.5625 -0.484375 -0.890625 -1.125q-0.328125 -0.640625 -0.328125 -1.515625q0 -0.578125 0.265625 -1.25q0.265625 -0.6875 0.90625 -1.265625q0.640625 -0.59375 1.734375 -0.984375q1.09375 -0.390625 2.734375 -0.390625q0.8125 0 1.796875 0.09375q0.984375 0.078125 2.046875 0.296875l0 2.125q-1.125 -0.28125 -2.125 -0.40625q-1.0 -0.125 -1.75 -0.125q-0.890625 0 -1.5 0.140625q-0.59375 0.125 -0.984375 0.375q-0.375 0.234375 -0.546875 0.5625q-0.15625 0.3125 -0.15625 0.671875q0 0.375 0.140625 0.6875q0.15625 0.296875 0.546875 0.578125q0.390625 0.265625 1.078125 0.546875q0.703125 0.28125 1.828125 0.609375q1.21875 0.359375 2.046875 0.75q0.828125 0.390625 1.34375 0.875q0.53125 0.46875 0.75 1.0781288q0.234375 0.59375 0.234375 1.359375zm10.035156 -10.218754q0.421875 0 0.796875 0.171875q0.390625 0.171875 0.671875 0.453125q0.296875 0.28125 0.453125 0.671875q0.171875 0.375 0.171875 0.796875q0 0.4375 -0.171875 0.828125q-0.15625 0.375 -0.453125 0.65625q-0.28125 0.28125 -0.671875 0.453125q-0.375 0.15625 -0.796875 0.15625q-0.4375 0 -0.8125 -0.15625q-0.375 -0.171875 -0.671875 -0.453125q-0.28125 -0.28125 -0.453125 -0.65625q-0.15625 -0.390625 -0.15625 -0.828125q0 -0.421875 0.15625 -0.796875q0.171875 -0.390625 0.453125 -0.671875q0.296875 -0.28125 0.671875 -0.453125q0.375 -0.171875 0.8125 -0.171875zm0 10.015629q0.421875 0 0.796875 0.171875q0.390625 0.171875 0.671875 0.46875q0.296875 0.28125 0.453125 0.671875q0.171875 0.375 0.171875 0.796875q0 0.4375 -0.171875 0.8125q-0.15625 0.375 -0.453125 0.671875q-0.28125 0.28125 -0.671875 0.4375q-0.375 0.171875 -0.796875 0.171875q-0.4375 0 -0.8125 -0.171875q-0.375 -0.15625 -0.671875 -0.4375q-0.28125 -0.296875 -0.453125 -0.671875q-0.15625 -0.375 -0.15625 -0.8125q0 -0.421875 0.15625 -0.796875q0.171875 -0.390625 0.453125 -0.671875q0.296875 -0.296875 0.671875 -0.46875q0.375 -0.171875 0.8125 -0.171875zm15.394531 -10.015629q0.421875 0 0.796875 0.171875q0.390625 0.171875 0.671875 0.453125q0.296875 0.28125 0.453125 0.671875q0.171875 0.375 0.171875 0.796875q0 0.4375 -0.171875 0.828125q-0.15625 0.375 -0.453125 0.65625q-0.28125 0.28125 -0.671875 0.453125q-0.375 0.15625 -0.796875 0.15625q-0.4375 0 -0.8125 -0.15625q-0.375 -0.171875 -0.671875 -0.453125q-0.28125 -0.28125 -0.453125 -0.65625q-0.15625 -0.390625 -0.15625 -0.828125q0 -0.421875 0.15625 -0.796875q0.171875 -0.390625 0.453125 -0.671875q0.296875 -0.28125 0.671875 -0.453125q0.375 -0.171875 0.8125 -0.171875zm0 10.015629q0.421875 0 0.796875 0.171875q0.390625 0.171875 0.671875 0.46875q0.296875 0.28125 0.453125 0.671875q0.171875 0.375 0.171875 0.796875q0 0.4375 -0.171875 0.8125q-0.15625 0.375 -0.453125 0.671875q-0.28125 0.28125 -0.671875 0.4375q-0.375 0.171875 -0.796875 0.171875q-0.4375 0 -0.8125 -0.171875q-0.375 -0.15625 -0.671875 -0.4375q-0.28125 -0.296875 -0.453125 -0.671875q-0.15625 -0.375 -0.15625 -0.8125q0 -0.421875 0.15625 -0.796875q0.171875 -0.390625 0.453125 -0.671875q0.296875 -0.296875 0.671875 -0.46875q0.375 -0.171875 0.8125 -0.171875zm21.582031 -1.390625q0 1.28125 -0.5 2.28125q-0.5 0.984375 -1.421875 1.671875q-0.921875 0.671875 -2.234375 1.03125q-1.296875 0.359375 -2.890625 0.359375l-4.6875 0l0 -17.875004l5.125 0q5.96875 0 5.96875 4.359375q0 1.4375 -0.6875 2.484375q-0.6875 1.03125 -2.25 1.546875q0.71875 0.125 1.359375 0.453125q0.65625 0.328125 1.140625 0.859375q0.5 0.515625 0.78125 1.234375q0.296875 0.703125 0.296875 1.5937538zm-3.171875 -7.843754q0 -0.546875 -0.171875 -1.03125q-0.15625 -0.5 -0.5625 -0.84375q-0.40625 -0.34375 -1.109375 -0.546875q-0.703125 -0.203125 -1.765625 -0.203125l-2.515625 0l0 5.578125l2.4375 0q0.828125 0 1.5 -0.171875q0.6875 -0.171875 1.171875 -0.546875q0.484375 -0.375 0.75 -0.921875q0.265625 -0.546875 0.265625 -1.3125zm0.59375 7.921879q0 -0.6875038 -0.296875 -1.2343788q-0.28125 -0.546875 -0.828125 -0.921875q-0.546875 -0.375 -1.34375 -0.578125q-0.78125 -0.203125 -1.765625 -0.203125l-2.484375 0l0 6.156254l2.578125 0q2.078125 0 3.109375 -0.78125q1.03125 -0.78125 1.03125 -2.4375zm17.300781 5.265625l-2.125 0l-0.09375 -2.21875q-0.609375 0.71875 -1.171875 1.1875q-0.546875 0.46875 -1.09375 0.765625q-0.546875 0.28125 -1.109375 0.390625q-0.546875 0.125 -1.15625 0.125q-2.125 0 -3.203125 -1.25q-1.078125 -1.25 -1.078125 -3.765625l0 -8.968754l2.375 0l0 8.781254q0 3.15625 2.390625 3.15625q0.4375 0 0.84375 -0.125q0.421875 -0.125 0.875 -0.4375q0.46875 -0.328125 0.984375 -0.875q0.53125 -0.546875 1.1875 -1.390625l0 -9.109379l2.375 0l0 13.734379zm9.035156 -11.765629l-4.0625 0l0 -1.96875l6.46875 0l0 11.750004l4.09375 0l0 1.984375l-11.0 0l0 -1.984375l4.5 0l0 -9.781254zm0.84375 -7.71875q0.390625 0 0.734375 0.140625q0.34375 0.140625 0.59375 0.40625q0.25 0.265625 0.390625 0.609375q0.15625 0.328125 0.15625 0.71875q0 0.375 -0.15625 0.71875q-0.140625 0.34375 -0.390625 0.609375q-0.25 0.25 -0.59375 0.40625q-0.34375 0.140625 -0.734375 0.140625q-0.40625 0 -0.75 -0.140625q-0.328125 -0.15625 -0.59375 -0.40625q-0.25 -0.265625 -0.390625 -0.609375q-0.140625 -0.34375 -0.140625 -0.71875q0 -0.390625 0.140625 -0.71875q0.140625 -0.34375 0.390625 -0.609375q0.265625 -0.265625 0.59375 -0.40625q0.34375 -0.140625 0.75 -0.140625zm14.550781 2.125l-4.0625 0l0 -1.953125l6.46875 0l0 17.328129l4.09375 0l0 1.984375l-11.0 0l0 -1.984375l4.5 0l0 -15.375004zm10.019531 10.78125q0 -1.75 0.484375 -3.109375q0.484375 -1.359375 1.359375 -2.296875q0.890625 -0.9375 2.1249695 -1.421875q1.234375 -0.484375 2.75 -0.484375q0.65625 0 1.28125 0.078125q0.640625 0.078125 1.265625 0.265625l0 -5.765625l2.390625 0l0 19.312504l-2.140625 0l-0.078125 -2.59375q-1.0 1.4375 -2.15625 2.140625q-1.15625 0.703125 -2.515625 0.703125q-1.171875 0 -2.0780945 -0.484375q-0.890625 -0.5 -1.484375 -1.390625q-0.59375 -0.90625 -0.90625 -2.15625q-0.296875 -1.265625 -0.296875 -2.7968788zm2.4375 -0.15625q0 2.5000038 0.734375 3.7187538q0.7343445 1.21875 2.0780945 1.21875q0.890625 0 1.890625 -0.796875q1.015625 -0.8125 2.125 -2.390625l0 -6.375004q-0.59375 -0.28125 -1.3125 -0.421875q-0.703125 -0.140625 -1.390625 -0.140625q-1.953125 0 -3.046875 1.265625q-1.0780945 1.25 -1.0780945 3.921875zm25.253876 -0.859375q0 0.515625 -0.015625 0.859375q-0.015625 0.328125 -0.03125 0.640625l-9.640625 0q0 2.0937538 1.171875 3.2343788q1.171875 1.125 3.390625 1.125q0.59375 0 1.1875 -0.046875q0.609375 -0.046875 1.171875 -0.125q0.5625 -0.09375 1.078125 -0.1875q0.515625 -0.109375 0.953125 -0.234375l0 1.953125q-0.96875 0.28125 -2.203125 0.453125q-1.21875 0.171875 -2.53125 0.171875q-1.765625 0 -3.046875 -0.484375q-1.265625 -0.484375 -2.078125 -1.390625q-0.8125 -0.90625 -1.203125 -2.21875q-0.390625 -1.328125 -0.390625 -3.0000038q0 -1.4375 0.421875 -2.734375q0.421875 -1.296875 1.21875 -2.265625q0.796875 -0.984375 1.953125 -1.546875q1.171875 -0.578125 2.640625 -0.578125q1.4375 0 2.546875 0.453125q1.109375 0.4375 1.859375 1.265625q0.765625 0.828125 1.15625 2.015625q0.390625 1.1875 0.390625 2.640625zm-2.46875 -0.34375q0.03125 -0.90625 -0.1875 -1.65625q-0.21875 -0.765625 -0.671875 -1.3125q-0.453125 -0.546875 -1.140625 -0.859375q-0.6875 -0.3125 -1.59375 -0.3125q-0.765625 0 -1.421875 0.3125q-0.640625 0.296875 -1.109375 0.84375q-0.453125 0.546875 -0.75 1.3125q-0.28125 0.765625 -0.34375 1.671875l7.21875 0zm6.8320312 -5.796875l2.171875 0l0.0625 2.53125q1.21875 -1.453125 2.40625 -2.109375q1.1875 -0.65625 2.390625 -0.65625q2.125 0 3.21875 1.375q1.109375 1.375 1.03125 4.109375l-2.40625 0q0.03125 -1.8125 -0.53125 -2.625q-0.5625 -0.8125 -1.65625 -0.8125q-0.484375 0 -0.96875 0.171875q-0.484375 0.171875 -1.0 0.546875q-0.515625 0.375 -1.09375 0.96875q-0.5625 0.578125 -1.21875 1.421875l0 8.812504l-2.40625 0l0 -13.734379z" fill-rule="nonzero"></path><path fill="#cfe2f3" d="m30.934383 384.39896l171.9685 0l0 220.75589l-171.9685 0z" fill-rule="nonzero"></path><path stroke="#000000" stroke-width="2.0" stroke-linejoin="round" stroke-linecap="butt" d="m30.934383 384.39896l171.9685 0l0 220.75589l-171.9685 0z" fill-rule="nonzero"></path><path fill="#990055" d="m53.82501 491.31314q0 1.28125 -0.5 2.28125q-0.5 0.984375 -1.421875 1.671875q-0.921875 0.671875 -2.234375 1.03125q-1.296875 0.359375 -2.890625 0.359375l-4.6875 0l0 -17.875l5.125 0q5.96875 0 5.96875 4.359375q0 1.4375 -0.6875 2.484375q-0.6875 1.03125 -2.25 1.546875q0.71875 0.125 1.359375 0.453125q0.65625 0.328125 1.140625 0.859375q0.5 0.515625 0.78125 1.234375q0.296875 0.703125 0.296875 1.59375zm-3.171875 -7.84375q0 -0.546875 -0.171875 -1.03125q-0.15625 -0.5 -0.5625 -0.84375q-0.40625 -0.34375 -1.109375 -0.546875q-0.703125 -0.203125 -1.765625 -0.203125l-2.515625 0l0 5.578125l2.4375 0q0.828125 0 1.5 -0.171875q0.6875 -0.171875 1.171875 -0.546875q0.484375 -0.375 0.75 -0.921875q0.265625 -0.546875 0.265625 -1.3125zm0.59375 7.921875q0 -0.6875 -0.296875 -1.234375q-0.28125 -0.546875 -0.828125 -0.921875q-0.546875 -0.375 -1.34375 -0.578125q-0.78125 -0.203125 -1.765625 -0.203125l-2.484375 0l0 6.15625l2.578125 0q2.078125 0 3.109375 -0.78125q1.03125 -0.78125 1.03125 -2.4375zm17.863277 -2.328125q0 0.515625 -0.015625 0.859375q-0.015625 0.328125 -0.03125 0.640625l-9.640621 0q0 2.09375 1.171875 3.234375q1.171875 1.125 3.390625 1.125q0.5937462 0 1.1874962 -0.046875q0.609375 -0.046875 1.171875 -0.125q0.5625 -0.09375 1.078125 -0.1875q0.515625 -0.109375 0.953125 -0.234375l0 1.953125q-0.96875 0.28125 -2.203125 0.453125q-1.21875 0.171875 -2.5312462 0.171875q-1.765625 0 -3.046875 -0.484375q-1.265625 -0.484375 -2.078125 -1.390625q-0.8125 -0.90625 -1.203125 -2.21875q-0.390625 -1.328125 -0.390625 -3.0q0 -1.4375 0.421875 -2.734375q0.421875 -1.296875 1.21875 -2.265625q0.796875 -0.984375 1.953125 -1.546875q1.171875 -0.578125 2.640625 -0.578125q1.4374962 0 2.5468712 0.453125q1.109375 0.4375 1.859375 1.265625q0.765625 0.828125 1.15625 2.015625q0.390625 1.1875 0.390625 2.640625zm-2.46875 -0.34375q0.03125 -0.90625 -0.1875 -1.65625q-0.21875 -0.765625 -0.671875 -1.3125q-0.453125 -0.546875 -1.140625 -0.859375q-0.6874962 -0.3125 -1.5937462 -0.3125q-0.765625 0 -1.421875 0.3125q-0.640625 0.296875 -1.109375 0.84375q-0.453125 0.546875 -0.75 1.3125q-0.28125 0.765625 -0.34375 1.671875l7.218746 0zm10.941406 -9.421875l-4.0625 0l0 -1.953125l6.46875 0l0 17.328125l4.09375 0l0 1.984375l-11.0 0l0 -1.984375l4.5 0l0 -15.375zm22.675781 10.390625q0 1.59375 -0.453125 2.9375q-0.453125 1.328125 -1.296875 2.28125q-0.84375 0.9375 -2.0625 1.46875q-1.21875 0.53125 -2.765625 0.53125q-1.484375 0 -2.65625 -0.453125q-1.15625 -0.46875 -1.96875 -1.359375q-0.8125 -0.890625 -1.25 -2.203125q-0.421875 -1.3125 -0.421875 -3.015625q0 -1.59375 0.4375 -2.90625q0.453125 -1.328125 1.296875 -2.28125q0.859375 -0.953125 2.078125 -1.46875q1.21875 -0.53125 2.75 -0.53125q1.484375 0 2.65625 0.453125q1.171875 0.453125 1.984375 1.34375q0.8125 0.875 1.234375 2.1875q0.4375 1.3125 0.4375 3.015625zm-2.4375 0.109375q0 -1.28125 -0.28125 -2.21875q-0.28125 -0.953125 -0.796875 -1.59375q-0.515625 -0.640625 -1.265625 -0.953125q-0.75 -0.328125 -1.65625 -0.328125q-1.078125 0 -1.84375 0.421875q-0.75 0.421875 -1.234375 1.125q-0.484375 0.6875 -0.71875 1.609375q-0.21875 0.921875 -0.21875 1.9375q0 1.265625 0.28125 2.234375q0.28125 0.953125 0.796875 1.59375q0.53125 0.625 1.265625 0.953125q0.734375 0.3125 1.671875 0.3125q1.0625 0 1.8125 -0.40625q0.765625 -0.421875 1.25 -1.125q0.484375 -0.703125 0.703125 -1.625q0.234375 -0.921875 0.234375 -1.9375zm5.8789062 -6.875l2.125 0l0.09375 2.21875q0.59375 -0.703125 1.15625 -1.171875q0.5625 -0.484375 1.09375 -0.765625q0.546875 -0.28125 1.109375 -0.390625q0.5625 -0.125 1.15625 -0.125q2.125 0 3.203125 1.25q1.09375 1.25 1.09375 3.765625l0 8.953125l-2.375 0l0 -8.765625q0 -1.609375 -0.609375 -2.375q-0.59375 -0.78125 -1.78125 -0.78125q-0.4375 0 -0.859375 0.140625q-0.421875 0.125 -0.875 0.453125q-0.4375 0.3125 -0.96875 0.859375q-0.53125 0.546875 -1.1875 1.359375l0 9.109375l-2.375 0l0 -13.734375zm25.285164 1.953125q0.375 0.46875 0.578125 1.109375q0.21875 0.640625 0.21875 1.375q0 1.0625 -0.390625 1.953125q-0.390625 0.875 -1.109375 1.515625q-0.7031326 0.625 -1.6875076 0.96875q-0.984375 0.34375 -2.1875 0.34375q-0.859375 0 -1.609375 -0.171875q-0.75 -0.1875 -1.1875 -0.46875q-0.265625 0.390625 -0.4375 0.734375q-0.171875 0.328125 -0.171875 0.75q0 0.53125 0.5 0.875q0.5 0.328125 1.3125 0.359375l3.609375 0.140625q1.03125 0.03125 1.8906326 0.265625q0.875 0.21875 1.484375 0.65625q0.625 0.4375 0.96875 1.09375q0.359375 0.640625 0.359375 1.484375q0 0.921875 -0.40625 1.734375q-0.390625 0.828125 -1.21875 1.4375q-0.828125 0.625 -2.0937576 1.0q-1.265625 0.375 -3.015625 0.375q-1.671875 0 -2.84375 -0.28125q-1.171875 -0.265625 -1.921875 -0.734375q-0.75 -0.46875 -1.09375 -1.125q-0.34375 -0.640625 -0.34375 -1.421875q0 -1.0 0.46875 -1.75q0.46875 -0.75 1.4375 -1.453125q-0.359375 -0.15625 -0.625 -0.40625q-0.25 -0.25 -0.421875 -0.53125q-0.15625 -0.296875 -0.25 -0.625q-0.078125 -0.328125 -0.078125 -0.65625q0 -0.875 0.421875 -1.609375q0.421875 -0.75 1.0 -1.40625q-0.265625 -0.3125 -0.46875 -0.609375q-0.1875 -0.3125 -0.34375 -0.65625q-0.140625 -0.34375 -0.21875 -0.75q-0.0625 -0.40625 -0.0625 -0.921875q0 -1.0625 0.375 -1.9375q0.390625 -0.890625 1.09375 -1.515625q0.71875 -0.640625 1.703125 -0.984375q0.984375 -0.34375 2.1875 -0.34375q0.515625 0 0.96875 0.0625q0.46875 0.0625 0.828125 0.171875l4.9843826 0l0 1.953125l-2.203125 0zm-8.265633 13.765625q0 0.96875 1.015625 1.40625q1.015625 0.453125 2.8125 0.453125q1.140625 0 1.90625 -0.203125q0.78125 -0.203125 1.25 -0.546875q0.46875763 -0.328125 0.6718826 -0.765625q0.203125 -0.421875 0.203125 -0.875q0 -0.84375 -0.6875076 -1.234375q-0.671875 -0.390625 -2.078125 -0.46875l-3.59375 -0.125q-0.4375 0.3125 -0.734375 0.59375q-0.296875 0.28125 -0.46875 0.578125q-0.15625 0.296875 -0.234375 0.59375q-0.0625 0.296875 -0.0625 0.59375zm0.734375 -11.234375q0 0.65625 0.21875 1.203125q0.21875 0.546875 0.609375 0.9375q0.390625 0.375 0.921875 0.59375q0.546875 0.21875 1.203125 0.21875q0.71875 0 1.265625 -0.234375q0.5625 -0.25 0.9375 -0.65625q0.375 -0.421875 0.5625 -0.953125q0.203125 -0.53125 0.203125 -1.109375q0 -0.65625 -0.21875 -1.203125q-0.21875 -0.546875 -0.609375 -0.921875q-0.390625 -0.390625 -0.9375 -0.59375q-0.546875 -0.21875 -1.203125 -0.21875q-0.703125 0 -1.265625 0.25q-0.546875 0.25 -0.921875 0.65625q-0.375 0.390625 -0.578125 0.9375q-0.1875 0.53125 -0.1875 1.09375zm23.910164 5.5q0 0.734375 -0.25 1.3125q-0.25 0.5625 -0.671875 1.015625q-0.421875 0.4375 -0.984375 0.75q-0.5625 0.3125 -1.203125 0.53125q-0.625 0.203125 -1.296875 0.296875q-0.671875 0.09375 -1.3125 0.09375q-1.390625 0 -2.5625 -0.125q-1.171875 -0.125 -2.296875 -0.40625l0 -2.1875q1.203125 0.34375 2.390625 0.53125q1.203125 0.171875 2.375 0.171875q1.703125 0 2.515625 -0.453125q0.828125 -0.46875 0.828125 -1.34375q0 -0.359375 -0.125 -0.65625q-0.125 -0.296875 -0.46875 -0.5625q-0.34375 -0.265625 -1.0625 -0.546875q-0.71875 -0.296875 -1.96875 -0.65625q-0.921875 -0.28125 -1.71875 -0.625q-0.78125 -0.34375 -1.359375 -0.828125q-0.5625 -0.484375 -0.890625 -1.125q-0.328125 -0.640625 -0.328125 -1.515625q0 -0.578125 0.265625 -1.25q0.265625 -0.6875 0.90625 -1.265625q0.640625 -0.59375 1.734375 -0.984375q1.09375 -0.390625 2.734375 -0.390625q0.8125 0 1.796875 0.09375q0.984375 0.078125 2.046875 0.296875l0 2.125q-1.125 -0.28125 -2.125 -0.40625q-1.0 -0.125 -1.75 -0.125q-0.890625 0 -1.5 0.140625q-0.59375 0.125 -0.984375 0.375q-0.375 0.234375 -0.546875 0.5625q-0.15625 0.3125 -0.15625 0.671875q0 0.375 0.140625 0.6875q0.15625 0.296875 0.546875 0.578125q0.390625 0.265625 1.078125 0.546875q0.703125 0.28125 1.828125 0.609375q1.21875 0.359375 2.046875 0.75q0.828125 0.390625 1.34375 0.875q0.53125 0.46875 0.75 1.078125q0.234375 0.59375 0.234375 1.359375zm16.550781 -12.046875l-5.296875 0l0 15.796875l-2.453125 0l0 -15.796875l-5.296875 0l0 -2.078125l13.046875 0l0 2.078125zm15.316406 8.828125q0 1.59375 -0.453125 2.9375q-0.453125 1.328125 -1.296875 2.28125q-0.84375 0.9375 -2.0625 1.46875q-1.21875 0.53125 -2.765625 0.53125q-1.484375 0 -2.65625 -0.453125q-1.15625 -0.46875 -1.96875 -1.359375q-0.8125 -0.890625 -1.25 -2.203125q-0.421875 -1.3125 -0.421875 -3.015625q0 -1.59375 0.4375 -2.90625q0.453125 -1.328125 1.296875 -2.28125q0.859375 -0.953125 2.078125 -1.46875q1.21875 -0.53125 2.75 -0.53125q1.484375 0 2.65625 0.453125q1.171875 0.453125 1.984375 1.34375q0.8125 0.875 1.234375 2.1875q0.4375 1.3125 0.4375 3.015625zm-2.4375 0.109375q0 -1.28125 -0.28125 -2.21875q-0.28125 -0.953125 -0.796875 -1.59375q-0.515625 -0.640625 -1.265625 -0.953125q-0.75 -0.328125 -1.65625 -0.328125q-1.078125 0 -1.84375 0.421875q-0.75 0.421875 -1.234375 1.125q-0.484375 0.6875 -0.71875 1.609375q-0.21875 0.921875 -0.21875 1.9375q0 1.265625 0.28125 2.234375q0.28125 0.953125 0.796875 1.59375q0.53125 0.625 1.265625 0.953125q0.734375 0.3125 1.671875 0.3125q1.0625 0 1.8125 -0.40625q0.765625 -0.421875 1.25 -1.125q0.484375 -0.703125 0.703125 -1.625q0.234375 -0.921875 0.234375 -1.9375z" fill-rule="nonzero"></path><path fill="#cfe2f3" d="m236.35301 384.39896l163.71654 0l0 220.75589l-163.71654 0z" fill-rule="nonzero"></path><path stroke="#000000" stroke-width="2.0" stroke-linejoin="round" stroke-linecap="butt" d="m236.35301 384.39896l163.71654 0l0 220.75589l-163.71654 0z" fill-rule="nonzero"></path><path fill="#990055" d="m259.24365 496.6569l-2.4375 0l0 -8.203125l-7.5000153 0l0 8.203125l-2.4375 0l0 -17.875l2.4375 0l0 7.5625l7.5000153 0l0 -7.5625l2.4375 0l0 17.875zm12.503906 0l-0.046875 -1.84375q-1.125 1.109375 -2.28125 1.609375q-1.15625 0.484375 -2.421875 0.484375q-1.171875 0 -2.015625 -0.296875q-0.828125 -0.3125 -1.375 -0.828125q-0.53125 -0.53125 -0.796875 -1.234375q-0.25 -0.71875 -0.25 -1.5625q0 -2.0625 1.53125 -3.21875q1.546875 -1.171875 4.5625 -1.171875l2.84375 0l0 -1.203125q0 -1.21875 -0.78125 -1.953125q-0.78125 -0.734375 -2.375 -0.734375q-1.171875 0 -2.296875 0.265625q-1.125 0.25 -2.328125 0.734375l0 -2.140625q0.453125 -0.171875 1.0 -0.328125q0.5625 -0.15625 1.171875 -0.28125q0.609375 -0.125 1.28125 -0.1875q0.671875 -0.078125 1.359375 -0.078125q1.25 0 2.234375 0.28125q1.0 0.265625 1.6875 0.828125q0.703125 0.546875 1.0625 1.40625q0.375 0.84375 0.375 1.984375l0 9.46875l-2.140625 0zm-0.25 -6.25l-3.03125 0q-0.875 0 -1.53125 0.1875q-0.640625 0.171875 -1.046875 0.5q-0.40625 0.328125 -0.609375 0.78125q-0.203125 0.453125 -0.203125 1.03125q0 0.40625 0.125 0.765625q0.125 0.359375 0.390625 0.640625q0.28125 0.28125 0.71875 0.453125q0.4375 0.15625 1.0625 0.15625q0.828125 0 1.890625 -0.5q1.0625 -0.5 2.234375 -1.578125l0 -2.4375zm17.707031 2.5q0 0.734375 -0.25 1.3125q-0.25 0.5625 -0.671875 1.015625q-0.421875 0.4375 -0.984375 0.75q-0.5625 0.3125 -1.203125 0.53125q-0.625 0.203125 -1.296875 0.296875q-0.671875 0.09375 -1.3125 0.09375q-1.390625 0 -2.5625 -0.125q-1.171875 -0.125 -2.296875 -0.40625l0 -2.1875q1.203125 0.34375 2.390625 0.53125q1.203125 0.171875 2.375 0.171875q1.703125 0 2.515625 -0.453125q0.828125 -0.46875 0.828125 -1.34375q0 -0.359375 -0.125 -0.65625q-0.125 -0.296875 -0.46875 -0.5625q-0.34375 -0.265625 -1.0625 -0.546875q-0.71875 -0.296875 -1.96875 -0.65625q-0.921875 -0.28125 -1.71875 -0.625q-0.78125 -0.34375 -1.359375 -0.828125q-0.5625 -0.484375 -0.890625 -1.125q-0.328125 -0.640625 -0.328125 -1.515625q0 -0.578125 0.265625 -1.25q0.265625 -0.6875 0.90625 -1.265625q0.640625 -0.59375 1.734375 -0.984375q1.09375 -0.390625 2.734375 -0.390625q0.8125 0 1.796875 0.09375q0.984375 0.078125 2.046875 0.296875l0 2.125q-1.125 -0.28125 -2.125 -0.40625q-1.0 -0.125 -1.75 -0.125q-0.890625 0 -1.5 0.140625q-0.59375 0.125 -0.984375 0.375q-0.375 0.234375 -0.546875 0.5625q-0.15625 0.3125 -0.15625 0.671875q0 0.375 0.140625 0.6875q0.15625 0.296875 0.546875 0.578125q0.390625 0.265625 1.078125 0.546875q0.703125 0.28125 1.828125 0.609375q1.21875 0.359375 2.046875 0.75q0.828125 0.390625 1.34375 0.875q0.53125 0.46875 0.75 1.078125q0.234375 0.59375 0.234375 1.359375zm17.050781 3.75l-2.375 0l-0.359375 -11.140625l-0.140625 -4.28125l-0.84375 2.484375l-2.625 7.109375l-1.6875 0l-2.515625 -6.828125l-0.828125 -2.765625l-0.0625 4.46875l-0.3125 10.953125l-2.296875 0l0.875 -17.875l2.890625 0l2.40625 6.734375l0.765625 2.265625l0.765625 -2.265625l2.515625 -6.734375l2.96875 0l0.859375 17.875zm11.675781 0l-0.046875 -1.84375q-1.125 1.109375 -2.28125 1.609375q-1.15625 0.484375 -2.421875 0.484375q-1.171875 0 -2.015625 -0.296875q-0.828125 -0.3125 -1.375 -0.828125q-0.53125 -0.53125 -0.796875 -1.234375q-0.25 -0.71875 -0.25 -1.5625q0 -2.0625 1.53125 -3.21875q1.546875 -1.171875 4.5625 -1.171875l2.84375 0l0 -1.203125q0 -1.21875 -0.78125 -1.953125q-0.78125 -0.734375 -2.375 -0.734375q-1.171875 0 -2.296875 0.265625q-1.125 0.25 -2.328125 0.734375l0 -2.140625q0.453125 -0.171875 1.0 -0.328125q0.5625 -0.15625 1.171875 -0.28125q0.609375 -0.125 1.28125 -0.1875q0.671875 -0.078125 1.359375 -0.078125q1.25 0 2.234375 0.28125q1.0 0.265625 1.6875 0.828125q0.703125 0.546875 1.0625 1.40625q0.375 0.84375 0.375 1.984375l0 9.46875l-2.140625 0zm-0.25 -6.25l-3.03125 0q-0.875 0 -1.53125 0.1875q-0.640625 0.171875 -1.046875 0.5q-0.40625 0.328125 -0.609375 0.78125q-0.203125 0.453125 -0.203125 1.03125q0 0.40625 0.125 0.765625q0.125 0.359375 0.390625 0.640625q0.28125 0.28125 0.71875 0.453125q0.4375 0.15625 1.0625 0.15625q0.828125 0 1.890625 -0.5q1.0625 -0.5 2.234375 -1.578125l0 -2.4375zm6.8320312 -7.484375l2.125 0l0.09375 2.21875q0.59375 -0.703125 1.15625 -1.171875q0.5625 -0.484375 1.09375 -0.765625q0.546875 -0.28125 1.109375 -0.390625q0.5625 -0.125 1.15625 -0.125q2.125 0 3.203125 1.25q1.09375 1.25 1.09375 3.765625l0 8.953125l-2.375 0l0 -8.765625q0 -1.609375 -0.609375 -2.375q-0.59375 -0.78125 -1.78125 -0.78125q-0.4375 0 -0.859375 0.140625q-0.421875 0.125 -0.875 0.453125q-0.4375 0.3125 -0.96875 0.859375q-0.53125 0.546875 -1.1875 1.359375l0 9.109375l-2.375 0l0 -13.734375zm27.597656 0l-4.671875 12.28125q-0.71875 1.875 -1.5 3.21875q-0.765625 1.359375 -1.6875 2.234375q-0.90625 0.875 -2.0 1.28125q-1.09375 0.40625 -2.453125 0.40625q-0.359375 0 -0.640625 -0.015625q-0.28125 -0.015625 -0.625 -0.03125l0 -2.171875q0.296875 0.046875 0.640625 0.078125q0.359375 0.03125 0.765625 0.03125q0.65625 0 1.21875 -0.1875q0.5625 -0.1875 1.0625 -0.625q0.515625 -0.421875 0.984375 -1.109375q0.46875 -0.6875 0.90625 -1.65625l-5.484375 -13.734375l2.703125 0l3.46875 9.078125l0.703125 2.140625l0.796875 -2.1875l3.203125 -9.03125l2.609375 0z" fill-rule="nonzero"></path><path fill="#cfe2f3" d="m433.51968 384.39896l310.61417 0l0 220.75589l-310.61417 0z" fill-rule="nonzero"></path><path stroke="#000000" stroke-width="2.0" stroke-linejoin="round" stroke-linecap="butt" d="m433.51968 384.39896l310.61417 0l0 220.75589l-310.61417 0z" fill-rule="nonzero"></path><path fill="#990055" d="m456.4103 496.6569l-2.4375 0l0 -8.203125l-7.5 0l0 8.203125l-2.4375 0l0 -17.875l2.4375 0l0 7.5625l7.5 0l0 -7.5625l2.4375 0l0 17.875zm12.503906 0l-0.046875 -1.84375q-1.125 1.109375 -2.28125 1.609375q-1.15625 0.484375 -2.421875 0.484375q-1.171875 0 -2.015625 -0.296875q-0.828125 -0.3125 -1.375 -0.828125q-0.53125 -0.53125 -0.796875 -1.234375q-0.25 -0.71875 -0.25 -1.5625q0 -2.0625 1.53125 -3.21875q1.546875 -1.171875 4.5625 -1.171875l2.84375 0l0 -1.203125q0 -1.21875 -0.78125 -1.953125q-0.78125 -0.734375 -2.375 -0.734375q-1.171875 0 -2.296875 0.265625q-1.125 0.25 -2.328125 0.734375l0 -2.140625q0.453125 -0.171875 1.0 -0.328125q0.5625 -0.15625 1.171875 -0.28125q0.609375 -0.125 1.28125 -0.1875q0.671875 -0.078125 1.359375 -0.078125q1.25 0 2.234375 0.28125q1.0 0.265625 1.6875 0.828125q0.703125 0.546875 1.0625 1.40625q0.375 0.84375 0.375 1.984375l0 9.46875l-2.140625 0zm-0.25 -6.25l-3.03125 0q-0.875 0 -1.53125 0.1875q-0.640625 0.171875 -1.046875 0.5q-0.40625 0.328125 -0.609375 0.78125q-0.203125 0.453125 -0.203125 1.03125q0 0.40625 0.125 0.765625q0.125 0.359375 0.390625 0.640625q0.28125 0.28125 0.71875 0.453125q0.4375 0.15625 1.0625 0.15625q0.828125 0 1.890625 -0.5q1.0625 -0.5 2.234375 -1.578125l0 -2.4375zm17.707031 2.5q0 0.734375 -0.25 1.3125q-0.25 0.5625 -0.671875 1.015625q-0.421875 0.4375 -0.984375 0.75q-0.5625 0.3125 -1.203125 0.53125q-0.625 0.203125 -1.296875 0.296875q-0.671875 0.09375 -1.3125 0.09375q-1.390625 0 -2.5625 -0.125q-1.171875 -0.125 -2.296875 -0.40625l0 -2.1875q1.203125 0.34375 2.390625 0.53125q1.203125 0.171875 2.375 0.171875q1.703125 0 2.515625 -0.453125q0.828125 -0.46875 0.828125 -1.34375q0 -0.359375 -0.125 -0.65625q-0.125 -0.296875 -0.46875 -0.5625q-0.34375 -0.265625 -1.0625 -0.546875q-0.71875 -0.296875 -1.96875 -0.65625q-0.921875 -0.28125 -1.71875 -0.625q-0.78125 -0.34375 -1.359375 -0.828125q-0.5625 -0.484375 -0.890625 -1.125q-0.328125 -0.640625 -0.328125 -1.515625q0 -0.578125 0.265625 -1.25q0.265625 -0.6875 0.90625 -1.265625q0.640625 -0.59375 1.734375 -0.984375q1.09375 -0.390625 2.734375 -0.390625q0.8125 0 1.796875 0.09375q0.984375 0.078125 2.046875 0.296875l0 2.125q-1.125 -0.28125 -2.125 -0.40625q-1.0 -0.125 -1.75 -0.125q-0.890625 0 -1.5 0.140625q-0.59375 0.125 -0.984375 0.375q-0.375 0.234375 -0.546875 0.5625q-0.15625 0.3125 -0.15625 0.671875q0 0.375 0.140625 0.6875q0.15625 0.296875 0.546875 0.578125q0.390625 0.265625 1.078125 0.546875q0.703125 0.28125 1.828125 0.609375q1.21875 0.359375 2.046875 0.75q0.828125 0.390625 1.34375 0.875q0.53125 0.46875 0.75 1.078125q0.234375 0.59375 0.234375 1.359375zm17.597656 3.75l-2.65625 0l-1.25 -3.890625l-7.4375 0l-1.25 3.890625l-2.53125 0l5.9375 -17.875l3.328125 0l5.859375 17.875zm-4.59375 -6.078125l-3.03125 -9.546875l-3.015625 9.546875l6.046875 0zm6.9101562 -7.65625l2.125 0l0.09375 2.21875q0.59375 -0.703125 1.15625 -1.171875q0.5625 -0.484375 1.09375 -0.765625q0.546875 -0.28125 1.109375 -0.390625q0.5625305 -0.125 1.1562805 -0.125q2.125 0 3.203125 1.25q1.09375 1.25 1.09375 3.765625l0 8.953125l-2.375 0l0 -8.765625q0 -1.609375 -0.609375 -2.375q-0.59375 -0.78125 -1.78125 -0.78125q-0.4375 0 -0.8594055 0.140625q-0.421875 0.125 -0.875 0.453125q-0.4375 0.3125 -0.96875 0.859375q-0.53125 0.546875 -1.1875 1.359375l0 9.109375l-2.375 0l0 -13.734375zm14.691437 7.15625q0 -1.75 0.484375 -3.109375q0.484375 -1.359375 1.359375 -2.296875q0.890625 -0.9375 2.125 -1.421875q1.234375 -0.484375 2.75 -0.484375q0.65625 0 1.28125 0.078125q0.640625 0.078125 1.265625 0.265625l0 -5.765625l2.390625 0l0 19.3125l-2.140625 0l-0.078125 -2.59375q-1.0 1.4375 -2.15625 2.140625q-1.15625 0.703125 -2.515625 0.703125q-1.171875 0 -2.078125 -0.484375q-0.890625 -0.5 -1.484375 -1.390625q-0.59375 -0.90625 -0.90625 -2.15625q-0.296875 -1.265625 -0.296875 -2.796875zm2.4375 -0.15625q0 2.5 0.734375 3.71875q0.734375 1.21875 2.078125 1.21875q0.890625 0 1.890625 -0.796875q1.015625 -0.8125 2.125 -2.390625l0 -6.375q-0.59375 -0.28125 -1.3125 -0.421875q-0.703125 -0.140625 -1.390625 -0.140625q-1.953125 0 -3.046875 1.265625q-1.078125 1.25 -1.078125 3.921875zm25.363281 1.390625q0 1.28125 -0.5 2.28125q-0.5 0.984375 -1.421875 1.671875q-0.921875 0.671875 -2.234375 1.03125q-1.296875 0.359375 -2.890625 0.359375l-4.6875 0l0 -17.875l5.125 0q5.96875 0 5.96875 4.359375q0 1.4375 -0.6875 2.484375q-0.6875 1.03125 -2.25 1.546875q0.71875 0.125 1.359375 0.453125q0.65625 0.328125 1.140625 0.859375q0.5 0.515625 0.78125 1.234375q0.296875 0.703125 0.296875 1.59375zm-3.171875 -7.84375q0 -0.546875 -0.171875 -1.03125q-0.15625 -0.5 -0.5625 -0.84375q-0.40625 -0.34375 -1.109375 -0.546875q-0.703125 -0.203125 -1.765625 -0.203125l-2.515625 0l0 5.578125l2.4375 0q0.828125 0 1.5 -0.171875q0.6875 -0.171875 1.171875 -0.546875q0.484375 -0.375 0.75 -0.921875q0.265625 -0.546875 0.265625 -1.3125zm0.59375 7.921875q0 -0.6875 -0.296875 -1.234375q-0.28125 -0.546875 -0.828125 -0.921875q-0.546875 -0.375 -1.34375 -0.578125q-0.78125 -0.203125 -1.765625 -0.203125l-2.484375 0l0 6.15625l2.578125 0q2.078125 0 3.109375 -0.78125q1.03125 -0.78125 1.03125 -2.4375zm17.863281 -2.328125q0 0.515625 -0.015625 0.859375q-0.015625 0.328125 -0.03125 0.640625l-9.640625 0q0 2.09375 1.171875 3.234375q1.171875 1.125 3.390625 1.125q0.59375 0 1.1875 -0.046875q0.609375 -0.046875 1.171875 -0.125q0.5625 -0.09375 1.078125 -0.1875q0.515625 -0.109375 0.953125 -0.234375l0 1.953125q-0.96875 0.28125 -2.203125 0.453125q-1.21875 0.171875 -2.53125 0.171875q-1.765625 0 -3.046875 -0.484375q-1.265625 -0.484375 -2.078125 -1.390625q-0.8125 -0.90625 -1.203125 -2.21875q-0.390625 -1.328125 -0.390625 -3.0q0 -1.4375 0.421875 -2.734375q0.421875 -1.296875 1.21875 -2.265625q0.796875 -0.984375 1.953125 -1.546875q1.171875 -0.578125 2.640625 -0.578125q1.4375 0 2.546875 0.453125q1.109375 0.4375 1.859375 1.265625q0.765625 0.828125 1.15625 2.015625q0.390625 1.1875 0.390625 2.640625zm-2.46875 -0.34375q0.03125 -0.90625 -0.1875 -1.65625q-0.21875 -0.765625 -0.671875 -1.3125q-0.453125 -0.546875 -1.140625 -0.859375q-0.6875 -0.3125 -1.59375 -0.3125q-0.765625 0 -1.421875 0.3125q-0.640625 0.296875 -1.109375 0.84375q-0.453125 0.546875 -0.75 1.3125q-0.28125 0.765625 -0.34375 1.671875l7.21875 0zm10.941406 -9.421875l-4.0625 0l0 -1.953125l6.46875 0l0 17.328125l4.09375 0l0 1.984375l-11.0 0l0 -1.984375l4.5 0l0 -15.375zm22.675781 10.390625q0 1.59375 -0.453125 2.9375q-0.453125 1.328125 -1.296875 2.28125q-0.84375 0.9375 -2.0625 1.46875q-1.21875 0.53125 -2.765625 0.53125q-1.484375 0 -2.65625 -0.453125q-1.15625 -0.46875 -1.96875 -1.359375q-0.8125 -0.890625 -1.25 -2.203125q-0.421875 -1.3125 -0.421875 -3.015625q0 -1.59375 0.4375 -2.90625q0.453125 -1.328125 1.296875 -2.28125q0.859375 -0.953125 2.078125 -1.46875q1.21875 -0.53125 2.75 -0.53125q1.484375 0 2.65625 0.453125q1.171875 0.453125 1.984375 1.34375q0.8125 0.875 1.234375 2.1875q0.4375 1.3125 0.4375 3.015625zm-2.4375 0.109375q0 -1.28125 -0.28125 -2.21875q-0.28125 -0.953125 -0.796875 -1.59375q-0.515625 -0.640625 -1.265625 -0.953125q-0.75 -0.328125 -1.65625 -0.328125q-1.078125 0 -1.84375 0.421875q-0.75 0.421875 -1.234375 1.125q-0.484375 0.6875 -0.71875 1.609375q-0.21875 0.921875 -0.21875 1.9375q0 1.265625 0.28125 2.234375q0.28125 0.953125 0.796875 1.59375q0.53125 0.625 1.265625 0.953125q0.734375 0.3125 1.671875 0.3125q1.0625 0 1.8125 -0.40625q0.765625 -0.421875 1.25 -1.125q0.484375 -0.703125 0.703125 -1.625q0.234375 -0.921875 0.234375 -1.9375zm5.8789062 -6.875l2.125 0l0.09375 2.21875q0.59375 -0.703125 1.15625 -1.171875q0.5625 -0.484375 1.09375 -0.765625q0.546875 -0.28125 1.109375 -0.390625q0.5625 -0.125 1.15625 -0.125q2.125 0 3.203125 1.25q1.09375 1.25 1.09375 3.765625l0 8.953125l-2.375 0l0 -8.765625q0 -1.609375 -0.609375 -2.375q-0.59375 -0.78125 -1.78125 -0.78125q-0.4375 0 -0.859375 0.140625q-0.421875 0.125 -0.875 0.453125q-0.4375 0.3125 -0.96875 0.859375q-0.53125 0.546875 -1.1875 1.359375l0 9.109375l-2.375 0l0 -13.734375zm25.285156 1.953125q0.375 0.46875 0.578125 1.109375q0.21875 0.640625 0.21875 1.375q0 1.0625 -0.390625 1.953125q-0.390625 0.875 -1.109375 1.515625q-0.703125 0.625 -1.6875 0.96875q-0.984375 0.34375 -2.1875 0.34375q-0.859375 0 -1.609375 -0.171875q-0.75 -0.1875 -1.1875 -0.46875q-0.265625 0.390625 -0.4375 0.734375q-0.171875 0.328125 -0.171875 0.75q0 0.53125 0.5 0.875q0.5 0.328125 1.3125 0.359375l3.609375 0.140625q1.03125 0.03125 1.890625 0.265625q0.875 0.21875 1.484375 0.65625q0.625 0.4375 0.96875 1.09375q0.359375 0.640625 0.359375 1.484375q0 0.921875 -0.40625 1.734375q-0.390625 0.828125 -1.21875 1.4375q-0.828125 0.625 -2.09375 1.0q-1.265625 0.375 -3.015625 0.375q-1.671875 0 -2.84375 -0.28125q-1.171875 -0.265625 -1.921875 -0.734375q-0.75 -0.46875 -1.09375 -1.125q-0.34375 -0.640625 -0.34375 -1.421875q0 -1.0 0.46875 -1.75q0.46875 -0.75 1.4375 -1.453125q-0.359375 -0.15625 -0.625 -0.40625q-0.25 -0.25 -0.421875 -0.53125q-0.15625 -0.296875 -0.25 -0.625q-0.078125 -0.328125 -0.078125 -0.65625q0 -0.875 0.421875 -1.609375q0.421875 -0.75 1.0 -1.40625q-0.265625 -0.3125 -0.46875 -0.609375q-0.1875 -0.3125 -0.34375 -0.65625q-0.140625 -0.34375 -0.21875 -0.75q-0.0625 -0.40625 -0.0625 -0.921875q0 -1.0625 0.375 -1.9375q0.390625 -0.890625 1.09375 -1.515625q0.71875 -0.640625 1.703125 -0.984375q0.984375 -0.34375 2.1875 -0.34375q0.515625 0 0.96875 0.0625q0.46875 0.0625 0.828125 0.171875l4.984375 0l0 1.953125l-2.203125 0zm-8.265625 13.765625q0 0.96875 1.015625 1.40625q1.015625 0.453125 2.8125 0.453125q1.140625 0 1.90625 -0.203125q0.78125 -0.203125 1.25 -0.546875q0.46875 -0.328125 0.671875 -0.765625q0.203125 -0.421875 0.203125 -0.875q0 -0.84375 -0.6875 -1.234375q-0.671875 -0.390625 -2.078125 -0.46875l-3.59375 -0.125q-0.4375 0.3125 -0.734375 0.59375q-0.296875 0.28125 -0.46875 0.578125q-0.15625 0.296875 -0.234375 0.59375q-0.0625 0.296875 -0.0625 0.59375zm0.734375 -11.234375q0 0.65625 0.21875 1.203125q0.21875 0.546875 0.609375 0.9375q0.390625 0.375 0.921875 0.59375q0.546875 0.21875 1.203125 0.21875q0.71875 0 1.265625 -0.234375q0.5625 -0.25 0.9375 -0.65625q0.375 -0.421875 0.5625 -0.953125q0.203125 -0.53125 0.203125 -1.109375q0 -0.65625 -0.21875 -1.203125q-0.21875 -0.546875 -0.609375 -0.921875q-0.390625 -0.390625 -0.9375 -0.59375q-0.546875 -0.21875 -1.203125 -0.21875q-0.703125 0 -1.265625 0.25q-0.546875 0.25 -0.921875 0.65625q-0.375 0.390625 -0.578125 0.9375q-0.1875 0.53125 -0.1875 1.09375zm23.910156 5.5q0 0.734375 -0.25 1.3125q-0.25 0.5625 -0.671875 1.015625q-0.421875 0.4375 -0.984375 0.75q-0.5625 0.3125 -1.203125 0.53125q-0.625 0.203125 -1.296875 0.296875q-0.671875 0.09375 -1.3125 0.09375q-1.390625 0 -2.5625 -0.125q-1.171875 -0.125 -2.296875 -0.40625l0 -2.1875q1.203125 0.34375 2.390625 0.53125q1.203125 0.171875 2.375 0.171875q1.703125 0 2.515625 -0.453125q0.828125 -0.46875 0.828125 -1.34375q0 -0.359375 -0.125 -0.65625q-0.125 -0.296875 -0.46875 -0.5625q-0.34375 -0.265625 -1.0625 -0.546875q-0.71875 -0.296875 -1.96875 -0.65625q-0.921875 -0.28125 -1.71875 -0.625q-0.78125 -0.34375 -1.359375 -0.828125q-0.5625 -0.484375 -0.890625 -1.125q-0.328125 -0.640625 -0.328125 -1.515625q0 -0.578125 0.265625 -1.25q0.265625 -0.6875 0.90625 -1.265625q0.640625 -0.59375 1.734375 -0.984375q1.09375 -0.390625 2.734375 -0.390625q0.8125 0 1.796875 0.09375q0.984375 0.078125 2.046875 0.296875l0 2.125q-1.125 -0.28125 -2.125 -0.40625q-1.0 -0.125 -1.75 -0.125q-0.890625 0 -1.5 0.140625q-0.59375 0.125 -0.984375 0.375q-0.375 0.234375 -0.546875 0.5625q-0.15625 0.3125 -0.15625 0.671875q0 0.375 0.140625 0.6875q0.15625 0.296875 0.546875 0.578125q0.390625 0.265625 1.078125 0.546875q0.703125 0.28125 1.828125 0.609375q1.21875 0.359375 2.046875 0.75q0.828125 0.390625 1.34375 0.875q0.53125 0.46875 0.75 1.078125q0.234375 0.59375 0.234375 1.359375zm16.550781 -12.046875l-5.296875 0l0 15.796875l-2.453125 0l0 -15.796875l-5.296875 0l0 -2.078125l13.046875 0l0 2.078125zm15.316406 8.828125q0 1.59375 -0.453125 2.9375q-0.453125 1.328125 -1.296875 2.28125q-0.84375 0.9375 -2.0625 1.46875q-1.21875 0.53125 -2.765625 0.53125q-1.484375 0 -2.65625 -0.453125q-1.15625 -0.46875 -1.96875 -1.359375q-0.8125 -0.890625 -1.25 -2.203125q-0.421875 -1.3125 -0.421875 -3.015625q0 -1.59375 0.4375 -2.90625q0.453125 -1.328125 1.296875 -2.28125q0.859375 -0.953125 2.078125 -1.46875q1.21875 -0.53125 2.75 -0.53125q1.484375 0 2.65625 0.453125q1.171875 0.453125 1.984375 1.34375q0.8125 0.875 1.234375 2.1875q0.4375 1.3125 0.4375 3.015625zm-2.4375 0.109375q0 -1.28125 -0.28125 -2.21875q-0.28125 -0.953125 -0.796875 -1.59375q-0.515625 -0.640625 -1.265625 -0.953125q-0.75 -0.328125 -1.65625 -0.328125q-1.078125 0 -1.84375 0.421875q-0.75 0.421875 -1.234375 1.125q-0.484375 0.6875 -0.71875 1.609375q-0.21875 0.921875 -0.21875 1.9375q0 1.265625 0.28125 2.234375q0.28125 0.953125 0.796875 1.59375q0.53125 0.625 1.265625 0.953125q0.734375 0.3125 1.671875 0.3125q1.0625 0 1.8125 -0.40625q0.765625 -0.421875 1.25 -1.125q0.484375 -0.703125 0.703125 -1.625q0.234375 -0.921875 0.234375 -1.9375zm18.410156 6.859375l-2.375 0l-0.359375 -11.140625l-0.140625 -4.28125l-0.84375 2.484375l-2.625 7.109375l-1.6875 0l-2.515625 -6.828125l-0.828125 -2.765625l-0.0625 4.46875l-0.3125 10.953125l-2.296875 0l0.875 -17.875l2.890625 0l2.40625 6.734375l0.765625 2.265625l0.765625 -2.265625l2.515625 -6.734375l2.96875 0l0.859375 17.875zm11.675781 0l-0.046875 -1.84375q-1.125 1.109375 -2.28125 1.609375q-1.15625 0.484375 -2.421875 0.484375q-1.171875 0 -2.015625 -0.296875q-0.828125 -0.3125 -1.375 -0.828125q-0.53125 -0.53125 -0.796875 -1.234375q-0.25 -0.71875 -0.25 -1.5625q0 -2.0625 1.53125 -3.21875q1.546875 -1.171875 4.5625 -1.171875l2.84375 0l0 -1.203125q0 -1.21875 -0.78125 -1.953125q-0.78125 -0.734375 -2.375 -0.734375q-1.171875 0 -2.296875 0.265625q-1.125 0.25 -2.328125 0.734375l0 -2.140625q0.453125 -0.171875 1.0 -0.328125q0.5625 -0.15625 1.171875 -0.28125q0.609375 -0.125 1.28125 -0.1875q0.671875 -0.078125 1.359375 -0.078125q1.25 0 2.234375 0.28125q1.0 0.265625 1.6875 0.828125q0.703125 0.546875 1.0625 1.40625q0.375 0.84375 0.375 1.984375l0 9.46875l-2.140625 0zm-0.25 -6.25l-3.03125 0q-0.875 0 -1.53125 0.1875q-0.640625 0.171875 -1.046875 0.5q-0.40625 0.328125 -0.609375 0.78125q-0.203125 0.453125 -0.203125 1.03125q0 0.40625 0.125 0.765625q0.125 0.359375 0.390625 0.640625q0.28125 0.28125 0.71875 0.453125q0.4375 0.15625 1.0625 0.15625q0.828125 0 1.890625 -0.5q1.0625 -0.5 2.234375 -1.578125l0 -2.4375zm6.8320312 -7.484375l2.125 0l0.09375 2.21875q0.59375 -0.703125 1.15625 -1.171875q0.5625 -0.484375 1.09375 -0.765625q0.546875 -0.28125 1.109375 -0.390625q0.5625 -0.125 1.15625 -0.125q2.125 0 3.203125 1.25q1.09375 1.25 1.09375 3.765625l0 8.953125l-2.375 0l0 -8.765625q0 -1.609375 -0.609375 -2.375q-0.59375 -0.78125 -1.78125 -0.78125q-0.4375 0 -0.859375 0.140625q-0.421875 0.125 -0.875 0.453125q-0.4375 0.3125 -0.96875 0.859375q-0.53125 0.546875 -1.1875 1.359375l0 9.109375l-2.375 0l0 -13.734375zm27.597656 0l-4.671875 12.28125q-0.71875 1.875 -1.5 3.21875q-0.765625 1.359375 -1.6875 2.234375q-0.90625 0.875 -2.0 1.28125q-1.09375 0.40625 -2.453125 0.40625q-0.359375 0 -0.640625 -0.015625q-0.28125 -0.015625 -0.625 -0.03125l0 -2.171875q0.296875 0.046875 0.640625 0.078125q0.359375 0.03125 0.765625 0.03125q0.65625 0 1.21875 -0.1875q0.5625 -0.1875 1.0625 -0.625q0.515625 -0.421875 0.984375 -1.109375q0.46875 -0.6875 0.90625 -1.65625l-5.484375 -13.734375l2.703125 0l3.46875 9.078125l0.703125 2.140625l0.796875 -2.1875l3.203125 -9.03125l2.609375 0z" fill-rule="nonzero"></path><path fill="#cfe2f3" d="m174.58792 332.88977l11.653549 -18.86615l11.653549 18.86615z" fill-rule="nonzero"></path><path stroke="#000000" stroke-width="2.0" stroke-linejoin="round" stroke-linecap="butt" d="m174.58792 332.88977l11.653549 -18.86615l11.653549 18.86615z" fill-rule="nonzero"></path><path fill="#cfe2f3" d="m559.25195 332.88977l11.653564 -18.86615l11.653564 18.86615z" fill-rule="nonzero"></path><path stroke="#000000" stroke-width="2.0" stroke-linejoin="round" stroke-linecap="butt" d="m559.25195 332.88977l11.653564 -18.86615l11.653564 18.86615z" fill-rule="nonzero"></path><path fill="#000000" fill-opacity="0.0" d="m186.24147 332.88977l0 25.75473l-69.32284 0l0 25.741333" fill-rule="nonzero"></path><path stroke="#000000" stroke-width="2.0" stroke-linejoin="round" stroke-linecap="butt" d="m186.24147 332.88977l0 25.75473l-69.32284 0l0 25.741333" fill-rule="nonzero"></path><path fill="#000000" fill-opacity="0.0" d="m570.9055 332.88977l0 25.75473l-252.69293 0l0 25.741333" fill-rule="nonzero"></path><path stroke="#000000" stroke-width="2.0" stroke-linejoin="round" stroke-linecap="butt" d="m570.9055 332.88977l0 25.75473l-252.69293 0l0 25.741333" fill-rule="nonzero"></path><path fill="#000000" fill-opacity="0.0" d="m571.2703 333.23096l0 25.388397l17.543335 0l0 25.792725" fill-rule="nonzero"></path><path stroke="#000000" stroke-width="2.0" stroke-linejoin="round" stroke-linecap="butt" d="m571.2703 333.23096l0 25.388397l17.543335 0l0 25.792725" fill-rule="nonzero"></path></g></svg>

