<?xml version="1.0" standalone="yes"?>

<svg version="1.1" viewBox="0.0 0.0 678.0 343.0" fill="none" stroke="none" stroke-linecap="square" stroke-miterlimit="10" xmlns="http://www.w3.org/2000/svg" xmlns:xlink="http://www.w3.org/1999/xlink"><clipPath id="p.0"><path d="m0 0l678.0 0l0 343.0l-678.0 0l0 -343.0z" clip-rule="nonzero"></path></clipPath><g clip-path="url(#p.0)"><path fill="#000000" fill-opacity="0.0" d="m0 0l678.6877 0l0 343.04724l-678.6877 0z" fill-rule="nonzero"></path><path fill="#cfe2f3" d="m22.994751 31.217848l251.02362 0l0 282.5827l-251.02362 0z" fill-rule="nonzero"></path><path stroke="#000000" stroke-width="2.0" stroke-linejoin="round" stroke-linecap="butt" d="m22.994751 31.217848l251.02362 0l0 282.5827l-251.02362 0z" fill-rule="nonzero"></path><path fill="#000000" d="m109.940155 186.90918l-7.609375 -28.640625l3.890625 0l4.359375 18.78125q0.703125 2.9375 1.203125 5.859375q1.09375 -4.59375 1.296875 -5.296875l5.453125 -19.34375l4.5625 0l4.109375 14.5q1.53125 5.390625 2.21875 10.140625q0.546875 -2.71875 1.421875 -6.234375l4.5 -18.40625l3.8125 0l-7.859375 28.640625l-3.65625 0l-6.03125 -21.8125q-0.765625 -2.734375 -0.890625 -3.359375q-0.453125 1.96875 -0.84375 3.359375l-6.078125 21.8125l-3.859375 0zm30.988281 -10.375q0 -5.765625 3.203125 -8.53125q2.671875 -2.3125 6.53125 -2.3125q4.265625 0 6.984375 2.8125q2.71875 2.796875 2.71875 7.734375q0 4.015625 -1.203125 6.3125q-1.203125 2.28125 -3.5 3.5625q-2.296875 1.265625 -5.0 1.265625q-4.359375 0 -7.046875 -2.796875q-2.6875 -2.796875 -2.6875 -8.046875zm3.609375 0q0 3.984375 1.734375 5.96875q1.75 1.984375 4.390625 1.984375q2.609375 0 4.34375 -1.984375q1.75 -2.0 1.75 -6.078125q0 -3.859375 -1.75 -5.828125q-1.75 -1.984375 -4.34375 -1.984375q-2.640625 0 -4.390625 1.96875q-1.734375 1.96875 -1.734375 5.953125zm19.902344 10.375l0 -20.75l3.171875 0l0 3.15625q1.203125 -2.21875 2.234375 -2.921875q1.03125 -0.703125 2.25 -0.703125q1.78125 0 3.625 1.140625l-1.21875 3.265625q-1.28125 -0.765625 -2.578125 -0.765625q-1.15625 0 -2.078125 0.703125q-0.90625 0.6875 -1.296875 1.90625q-0.59375 1.875 -0.59375 4.109375l0 10.859375l-3.515625 0zm13.3828125 0l0 -28.640625l3.515625 0l0 16.328125l8.328125 -8.4375l4.546875 0l-7.9375 7.703125l8.734375 13.046875l-4.328125 0l-6.859375 -10.609375l-2.484375 2.390625l0 8.21875l-3.515625 0z" fill-rule="nonzero"></path><path fill="#cfe2f3" d="m399.7454 31.217848l251.02365 0l0 282.5827l-251.02365 0z" fill-rule="nonzero"></path><path stroke="#000000" stroke-width="2.0" stroke-linejoin="round" stroke-linecap="butt" d="m399.7454 31.217848l251.02365 0l0 282.5827l-251.02365 0z" fill-rule="nonzero"></path><path fill="#000000" d="m439.48572 175.6748l0 -3.359375l12.125 -0.015625l0 10.625q-2.78125 2.21875 -5.75 3.34375q-2.96875 1.125 -6.09375 1.125q-4.21875 0 -7.671875 -1.796875q-3.453125 -1.8125 -5.21875 -5.234375q-1.75 -3.421875 -1.75 -7.640625q0 -4.171875 1.75 -7.796875q1.75 -3.625 5.03125 -5.375q3.28125 -1.765625 7.5625 -1.765625q3.109375 0 5.609375 1.015625q2.515625 1.0 3.9375 2.796875q1.421875 1.796875 2.171875 4.6875l-3.421875 0.9375q-0.640625 -2.1875 -1.609375 -3.4375q-0.953125 -1.25 -2.734375 -2.0q-1.765625 -0.75 -3.9375 -0.75q-2.59375 0 -4.5 0.796875q-1.890625 0.78125 -3.046875 2.078125q-1.15625 1.28125 -1.8125 2.828125q-1.09375 2.65625 -1.09375 5.75q0 3.828125 1.3125 6.40625q1.328125 2.578125 3.84375 3.828125q2.53125 1.25 5.359375 1.25q2.453125 0 4.796875 -0.9375q2.34375 -0.953125 3.5625 -2.03125l0 -5.328125l-8.421875 0zm31.472656 4.546875l3.625 0.453125q-0.859375 3.1875 -3.1875 4.953125q-2.3125 1.75 -5.9375 1.75q-4.546875 0 -7.21875 -2.796875q-2.65625 -2.8125 -2.65625 -7.875q0 -5.234375 2.6875 -8.125q2.703125 -2.890625 7.0 -2.890625q4.15625 0 6.796875 2.84375q2.640625 2.828125 2.640625 7.96875q0 0.3125 -0.03125 0.9375l-15.46875 0q0.203125 3.40625 1.9375 5.234375q1.734375 1.8125 4.34375 1.8125q1.921875 0 3.28125 -1.015625q1.375 -1.015625 2.1875 -3.25zm-11.546875 -5.671875l11.578125 0q-0.234375 -2.625 -1.328125 -3.9375q-1.671875 -2.03125 -4.359375 -2.03125q-2.421875 0 -4.078125 1.625q-1.640625 1.625 -1.8125 4.34375zm19.589844 12.359375l0 -20.75l3.15625 0l0 2.953125q2.296875 -3.421875 6.609375 -3.421875q1.875 0 3.4375 0.6875q1.578125 0.671875 2.359375 1.765625q0.78125 1.09375 1.09375 2.59375q0.203125 0.96875 0.203125 3.421875l0 12.75l-3.515625 0l0 -12.625q0 -2.140625 -0.421875 -3.203125q-0.40625 -1.0625 -1.453125 -1.703125q-1.046875 -0.640625 -2.453125 -0.640625q-2.234375 0 -3.875 1.4375q-1.625 1.421875 -1.625 5.40625l0 11.328125l-3.515625 0zm36.44922 -6.6875l3.625 0.453125q-0.859375 3.1875 -3.1875 4.953125q-2.3125 1.75 -5.9375 1.75q-4.546875 0 -7.21875 -2.796875q-2.65625 -2.8125 -2.65625 -7.875q0 -5.234375 2.6875 -8.125q2.703125 -2.890625 7.0 -2.890625q4.15625 0 6.796875 2.84375q2.640625 2.828125 2.640625 7.96875q0 0.3125 -0.03125 0.9375l-15.46875 0q0.203125 3.40625 1.9375 5.234375q1.734375 1.8125 4.34375 1.8125q1.921875 0 3.28125 -1.015625q1.375 -1.015625 2.1875 -3.25zm-11.546875 -5.671875l11.578125 0q-0.234375 -2.625 -1.328125 -3.9375q-1.671875 -2.03125 -4.359375 -2.03125q-2.421875 0 -4.078125 1.625q-1.640625 1.625 -1.8125 4.34375zm19.542969 12.359375l0 -20.75l3.171875 0l0 3.15625q1.203125 -2.21875 2.234375 -2.921875q1.03125 -0.703125 2.25 -0.703125q1.78125 0 3.625 1.140625l-1.21875 3.265625q-1.28125 -0.765625 -2.578125 -0.765625q-1.15625 0 -2.078125 0.703125q-0.90625 0.6875 -1.296875 1.90625q-0.59375 1.875 -0.59375 4.109375l0 10.859375l-3.515625 0zm13.3828125 -24.59375l0 -4.046875l3.515625 0l0 4.046875l-3.515625 0zm0 24.59375l0 -20.75l3.515625 0l0 20.75l-3.515625 0zm22.402344 -7.59375l3.453125 0.4375q-0.5625 3.578125 -2.90625 5.609375q-2.328125 2.015625 -5.71875 2.015625q-4.265625 0 -6.859375 -2.78125q-2.578125 -2.78125 -2.578125 -7.984375q0 -3.359375 1.109375 -5.875q1.125 -2.515625 3.390625 -3.78125q2.28125 -1.265625 4.953125 -1.265625q3.375 0 5.515625 1.71875q2.15625 1.703125 2.765625 4.84375l-3.421875 0.53125q-0.484375 -2.09375 -1.734375 -3.140625q-1.234375 -1.0625 -2.984375 -1.0625q-2.65625 0 -4.328125 1.90625q-1.65625 1.90625 -1.65625 6.03125q0 4.171875 1.59375 6.078125q1.609375 1.890625 4.1875 1.890625q2.078125 0 3.453125 -1.265625q1.390625 -1.28125 1.765625 -3.90625zm7.109375 7.59375l0 -28.640625l19.3125 0l0 3.390625l-15.515625 0l0 8.859375l13.4375 0l0 3.375l-13.4375 0l0 13.015625l-3.796875 0zm23.808594 -24.59375l0 -4.046875l3.515625 0l0 4.046875l-3.515625 0zm0 24.59375l0 -20.75l3.515625 0l0 20.75l-3.515625 0zm8.792969 0l0 -28.640625l3.515625 0l0 28.640625l-3.515625 0zm23.167969 -6.6875l3.625 0.453125q-0.859375 3.1875 -3.1875 4.953125q-2.3125 1.75 -5.9375 1.75q-4.546875 0 -7.21875 -2.796875q-2.65625 -2.8125 -2.65625 -7.875q0 -5.234375 2.6875 -8.125q2.703125 -2.890625 7.0 -2.890625q4.15625 0 6.796875 2.84375q2.640625 2.828125 2.640625 7.96875q0 0.3125 -0.03125 0.9375l-15.46875 0q0.203125 3.40625 1.9375 5.234375q1.734375 1.8125 4.34375 1.8125q1.921875 0 3.28125 -1.015625q1.375 -1.015625 2.1875 -3.25zm-11.546875 -5.671875l11.578125 0q-0.234375 -2.625 -1.328125 -3.9375q-1.671875 -2.03125 -4.359375 -2.03125q-2.421875 0 -4.078125 1.625q-1.640625 1.625 -1.8125 4.34375z" fill-rule="nonzero"></path><path fill="#000000" fill-opacity="0.0" d="m274.01837 172.50919l125.7323 0" fill-rule="nonzero"></path><path stroke="#000000" stroke-width="2.0" stroke-linejoin="round" stroke-linecap="butt" d="m274.01837 172.50919l125.7323 0" fill-rule="nonzero"></path><path fill="#000000" fill-opacity="0.0" d="m281.5328 192.05249l384.00003 0l0 48.0l-384.00003 0z" fill-rule="nonzero"></path><path fill="#000000" d="m297.61093 218.97249l-1.671875 0l0 -10.640625q-0.59375 0.578125 -1.578125 1.15625q-0.984375 0.5625 -1.765625 0.859375l0 -1.625q1.40625 -0.65625 2.453125 -1.59375q1.046875 -0.9375 1.484375 -1.8125l1.078125 0l0 13.65625z" fill-rule="nonzero"></path><path fill="#000000" fill-opacity="0.0" d="m350.67453 192.05249l384.00003 0l0 48.0l-384.00003 0z" fill-rule="nonzero"></path><path fill="#000000" d="m360.45578 212.26936q0 -2.421875 0.5 -3.890625q0.5 -1.46875 1.46875 -2.265625q0.984375 -0.796875 2.46875 -0.796875q1.09375 0 1.921875 0.4375q0.828125 0.4375 1.359375 1.28125q0.546875 0.828125 0.84375 2.015625q0.3125 1.1875 0.3125 3.21875q0 2.390625 -0.5 3.859375q-0.484375 1.46875 -1.46875 2.28125q-0.96875 0.796875 -2.46875 0.796875q-1.96875 0 -3.078125 -1.40625q-1.359375 -1.703125 -1.359375 -5.53125zm1.71875 0q0 3.34375 0.78125 4.453125q0.796875 1.109375 1.9375 1.109375q1.15625 0 1.9375 -1.109375q0.78125 -1.125 0.78125 -4.453125q0 -3.359375 -0.78125 -4.46875q-0.78125 -1.109375 -1.953125 -1.109375q-1.15625 0 -1.828125 0.984375q-0.875 1.234375 -0.875 4.59375zm9.594482 6.703125l0 -1.90625l1.90625 0l0 1.90625l-1.90625 0zm5.1832886 0l0 -1.90625l1.90625 0l0 1.90625l-1.90625 0zm5.183319 0l0 -1.90625l1.90625 0l0 1.90625l-1.90625 0zm4.0582886 -11.109375l0.421875 -1.3125q1.484375 0.515625 2.140625 0.90625q-0.171875 -1.6875 -0.171875 -2.3125l1.34375 0q-0.03125 0.90625 -0.21875 2.296875q0.953125 -0.484375 2.1875 -0.890625l0.421875 1.3125q-1.171875 0.390625 -2.296875 0.53125q0.5625 0.484375 1.59375 1.75l-1.109375 0.78125q-0.546875 -0.734375 -1.28125 -1.984375q-0.6875 1.296875 -1.203125 1.984375l-1.09375 -0.78125q1.078125 -1.328125 1.53125 -1.75q-1.1875 -0.234375 -2.265625 -0.53125z" fill-rule="nonzero"></path><path fill="#000000" fill-opacity="0.0" d="m293.55643 136.53543l384.00003 0l0 48.0l-384.00003 0z" fill-rule="nonzero"></path><path fill="#000000" d="m303.82205 151.76793l0 -1.90625l1.671875 0l0 1.90625l-1.671875 0zm0 11.6875l0 -9.859375l1.671875 0l0 9.859375l-1.671875 0zm3.4573364 -2.9375l1.65625 -0.265625q0.140625 1.0 0.765625 1.53125q0.640625 0.515625 1.78125 0.515625q1.15625 0 1.703125 -0.46875q0.5625 -0.46875 0.5625 -1.09375q0 -0.5625 -0.484375 -0.890625q-0.34375 -0.21875 -1.703125 -0.5625q-1.84375 -0.46875 -2.5625 -0.796875q-0.703125 -0.34375 -1.078125 -0.9375q-0.359375 -0.609375 -0.359375 -1.328125q0 -0.65625 0.296875 -1.21875q0.3125 -0.5625 0.828125 -0.9375q0.390625 -0.28125 1.0625 -0.484375q0.671875 -0.203125 1.4375 -0.203125q1.171875 0 2.046875 0.34375q0.875 0.328125 1.28125 0.90625q0.421875 0.5625 0.578125 1.515625l-1.625 0.21875q-0.109375 -0.75 -0.65625 -1.171875q-0.53125 -0.4375 -1.5 -0.4375q-1.15625 0 -1.640625 0.390625q-0.484375 0.375 -0.484375 0.875q0 0.328125 0.203125 0.59375q0.203125 0.265625 0.640625 0.4375q0.25 0.09375 1.46875 0.4375q1.765625 0.46875 2.46875 0.765625q0.703125 0.296875 1.09375 0.875q0.40625 0.578125 0.40625 1.4375q0 0.828125 -0.484375 1.578125q-0.484375 0.734375 -1.40625 1.140625q-0.921875 0.390625 -2.078125 0.390625q-1.921875 0 -2.9375 -0.796875q-1.0 -0.796875 -1.28125 -2.359375zm10.21875 2.9375l0 -13.59375l5.125 0q1.359375 0 2.078125 0.125q1.0 0.171875 1.671875 0.640625q0.671875 0.46875 1.078125 1.3125q0.421875 0.84375 0.421875 1.84375q0 1.734375 -1.109375 2.9375q-1.09375 1.203125 -3.984375 1.203125l-3.484375 0l0 5.53125l-1.796875 0zm1.796875 -7.140625l3.515625 0q1.75 0 2.46875 -0.640625q0.734375 -0.65625 0.734375 -1.828125q0 -0.859375 -0.4375 -1.46875q-0.421875 -0.609375 -1.125 -0.796875q-0.453125 -0.125 -1.671875 -0.125l-3.484375 0l0 4.859375zm16.865448 5.921875q-0.9375 0.796875 -1.796875 1.125q-0.859375 0.3125 -1.84375 0.3125q-1.609375 0 -2.484375 -0.78125q-0.875 -0.796875 -0.875 -2.03125q0 -0.734375 0.328125 -1.328125q0.328125 -0.59375 0.859375 -0.953125q0.53125 -0.359375 1.203125 -0.546875q0.5 -0.140625 1.484375 -0.25q2.03125 -0.25 2.984375 -0.578125q0 -0.34375 0 -0.4375q0 -1.015625 -0.46875 -1.4375q-0.640625 -0.5625 -1.90625 -0.5625q-1.171875 0 -1.734375 0.40625q-0.5625 0.40625 -0.828125 1.46875l-1.640625 -0.234375q0.234375 -1.046875 0.734375 -1.6875q0.515625 -0.640625 1.46875 -0.984375q0.96875 -0.359375 2.25 -0.359375q1.265625 0 2.046875 0.296875q0.78125 0.296875 1.15625 0.75q0.375 0.453125 0.515625 1.140625q0.09375 0.421875 0.09375 1.53125l0 2.234375q0 2.328125 0.09375 2.953125q0.109375 0.609375 0.4375 1.171875l-1.75 0q-0.265625 -0.515625 -0.328125 -1.21875zm-0.140625 -3.71875q-0.90625 0.359375 -2.734375 0.625q-1.03125 0.140625 -1.453125 0.328125q-0.421875 0.1875 -0.65625 0.546875q-0.234375 0.359375 -0.234375 0.796875q0 0.671875 0.5 1.125q0.515625 0.4375 1.484375 0.4375q0.96875 0 1.71875 -0.421875q0.75 -0.4375 1.109375 -1.15625q0.265625 -0.578125 0.265625 -1.671875l0 -0.609375zm4.063202 4.9375l0 -9.859375l1.5 0l0 1.5q0.578125 -1.046875 1.0625 -1.375q0.484375 -0.34375 1.078125 -0.34375q0.84375 0 1.71875 0.546875l-0.578125 1.546875q-0.609375 -0.359375 -1.234375 -0.359375q-0.546875 0 -0.984375 0.328125q-0.421875 0.328125 -0.609375 0.90625q-0.28125 0.890625 -0.28125 1.953125l0 5.15625l-1.671875 0zm9.884552 -1.5l0.234375 1.484375q-0.703125 0.140625 -1.265625 0.140625q-0.90625 0 -1.40625 -0.28125q-0.5 -0.296875 -0.703125 -0.75q-0.203125 -0.46875 -0.203125 -1.984375l0 -5.65625l-1.234375 0l0 -1.3125l1.234375 0l0 -2.4375l1.65625 -1.0l0 3.4375l1.6875 0l0 1.3125l-1.6875 0l0 5.75q0 0.71875 0.078125 0.921875q0.09375 0.203125 0.296875 0.328125q0.203125 0.125 0.578125 0.125q0.265625 0 0.734375 -0.078125zm1.1989441 -5.125q0 -3.390625 1.8125 -5.296875q1.828125 -1.921875 4.703125 -1.921875q1.875 0 3.390625 0.90625q1.515625 0.890625 2.296875 2.5q0.796875 1.609375 0.796875 3.65625q0 2.0625 -0.84375 3.703125q-0.828125 1.625 -2.359375 2.46875q-1.53125 0.84375 -3.296875 0.84375q-1.921875 0 -3.4375 -0.921875q-1.5 -0.9375 -2.28125 -2.53125q-0.78125 -1.609375 -0.78125 -3.40625zm1.859375 0.03125q0 2.453125 1.3125 3.875q1.328125 1.40625 3.3125 1.40625q2.03125 0 3.34375 -1.421875q1.3125 -1.4375 1.3125 -4.0625q0 -1.65625 -0.5625 -2.890625q-0.546875 -1.234375 -1.640625 -1.921875q-1.078125 -0.6875 -2.421875 -0.6875q-1.90625 0 -3.28125 1.3125q-1.375 1.3125 -1.375 4.390625zm13.386414 6.59375l0 -8.546875l-1.484375 0l0 -1.3125l1.484375 0l0 -1.046875q0 -0.984375 0.171875 -1.46875q0.234375 -0.65625 0.84375 -1.046875q0.609375 -0.40625 1.703125 -0.40625q0.703125 0 1.5625 0.15625l-0.25 1.46875q-0.515625 -0.09375 -0.984375 -0.09375q-0.765625 0 -1.078125 0.328125q-0.3125 0.3125 -0.3125 1.203125l0 0.90625l1.921875 0l0 1.3125l-1.921875 0l0 8.546875l-1.65625 0z" fill-rule="nonzero"></path></g></svg>

